<?xml version="1.0" encoding="UTF-8"?>
<svg version="1.1" viewBox="0 0 1024 1024" width="1024" height="1024" xmlns="http://www.w3.org/2000/svg">
<path transform="translate(0)" d="m0 0h1024v1024h-1024z" fill="#26272C"/>
<path transform="translate(647,129)" d="m0 0 1 3-14 21-2 5-4 6-6 11-5 8-4 8-6 9-4 9-7 13-12 22-8 13-3 5-3 7-10 19-4 9-3 3-5 13-3 7h2l2-5 3-3 10 1 9-1 4-2h7l10 5 8-5 10-9 11-9 8-7 2-3h2v-2l3-2h7l3 1-1 5-9 11-12 13-9 8h2l22-6-2 5h-2l-1 3-6 5h-2l-2 4-11 9-1 4v5l3 1v2l6 2 6 4 3 5 3 7-1-10 2 2 6 21 1 15v22l-1 14-3 10-2 10-5 11-2 5-12 19-6 8h-2l-1 4-10 10h-2l-2 4-14 11-21 11-12 4-14 4-8 1h-32v-2l-8-1-6-2h-6l-8 8-1 2h-2l-2 4-11 12-14 15-3 4h-2l-2 4-9 9-7 8-10 10-6 8h-2l-2 4-11 11-7 8-7 6h-2l2-7 8-11 8-16 13-22 7-11 13-21 11-18 8-14 2-6-4-2-10-9-4-4-8-7-4-1-3 1-2 5-2 3-4 1-1 2h-2v2l-16 11-11 4-1-3 1-3 6-5 5-8 5-5 3-4-15 4-8-1 5-5 9-7 11-11-1-5-2-4h-2l-5-9-6-22-2-6-2-17v-28l3-14 4-9 5-11 2-5 5-2 2-5 3-5 3-1v-2l6-5 6-8 10-9 6-4 8-6 11-7h2v-2l17-8h6l1-3 3-1 37-2v2h2l1 5 10-10 9-11 13-14 10-13 16-17 8-10 9-11h2l2-4 5-7h2l2-4 12-14 9-11h2l2-4 8-10 2-3h2l2-4z" fill="#F0F7F8"/>
<path transform="translate(0)" d="m0 0h229l-1 3h-4l1 1h5l-2 3h-6v-3l-3 1-3 6-3 3h-2l-1 3-3 3 8-7h2l1-2 3 3-2 4-2-1v-2l-5 5-5 3h-3l2 3-1 4-1 2h2v2l-1 1 2 2-2 7-2 1h3l-2 6-5 1v5h-2l1 4h-3l-1 2 1-4 2-6-2-1-1 2-2-2h-1v-6l1-3v-6l-3 3-2 8h-2l1-6-3 2 1 2-4 9-3 1-2-2 3-1v-3l-2 2h-2v-3l2-1v-3l3-7-2 1-2 4-2 5v6l-4 1-1 3-2-2h-2v-3h-2l-1 2v-4h-2v-2h-2v2l-5 1v6l-3 4-1 3h3l1 2 5-5-1 4-3 3h-2v2l-6 2h-4v2l-6 3h3l4-1h4v2l3 1-5 1 3 2-7 2v2l-2 1 5 2-8 4-1 5h-9l-3-6v5l-2-3h-4-8l1-2 2 1v-2l-5-1-1-2-2 5v2l-3 1 4 2-1 4-3 4h2v-2l2 1-3 3h-5l-1-2h3l-1-3-2-2v-4l-2 5-2-3-1 2-7 1-4-1-2-1v2l2 1-2 2v5l1 2h-3l-2 5 4 3v-2l6-2v-2l4-2 1 1 2-2 1 3h2l2-4 5-1 3 2-3 4 3 2h-6l2 2 8-3v2h2v2l-5 2-2 2-1-3-3 4-1 4 3-1 1-1-2-1 1-2 5 2 2 1-5 5h-2v2l6-2 5-2-1 3-7 4-2 2v-2l-6 1 1 4-4-3-1-3 1-1-2-1v2l-4 1-2-2h-5l3 2-4 1-4-3-6-1-1-2h-2v2l-3 1 2-6 4-2 1-3-1-6 1-5h3l-2-2 2-6-5 1-5 2h-4l7 2 1 5-4 4-1 3-1-5h-3l-1 3-1-3 3-1v-2l-6 5v-4h2v-3h3v-2l-5 1h-7l-5 1-1 2h2l2 7-5 5 2 1-2 1-2-1-1 4v3l-1-2h-2l-1-3-4 2 2-4-2-1v2l-7 5-1 2h-5l1 1v3l-7 1-1 3h-1v-5l3-2v3h3l-1-9 1-7h2v-4l-3-1 1-2-4 1-2-1v-2l4-1 1-2h2l-1-2-3 3-6-1 1 3h-2l1 3 3 2-3 2 1 2-2 7 2 1v2h-2v5l1 3h-3z" fill="#4B4E53"/>
<path transform="translate(636,278)" d="m0 0h7l3 1-1 5-9 11-12 13-9 8h2l22-6-2 5h-2l-1 3-6 5h-2l-2 4-11 9-1 4v5l3 1v2l6 2 6 4 3 5 3 7-1-10 2 2 6 21 1 15v22l-1 14-3 10-2 10-5 11-2 5-12 19-6 8h-2l-1 4-10 10h-2l-2 4-14 11-21 11-12 4-14 4-8 1h-32v-2l-8-1-11-3 6-8 10-11 9-11 27-27 7-8 6-7h2l2-4 12-12 7-8 11-12 14-15 7-8 28-28 1-3-14 1h-92l1-6 5-7 10-21 11-20 4-1 2-5 3-3 10 1 9-1 4-2h7l10 5 8-5 10-9 11-9 8-7 2-3h2v-2z" fill="#129DF9"/>
<path transform="translate(500,282)" d="m0 0h6v2h2l1 4-3 5-9 11-7 8-9 10-5 8-7 9-7 7-7 8-8 7-3 5-11 12-7 8-10 14h-2l-2 4-8 8-7 8-7 6-3 6 4 1 17-1h85l-4 8-7 11-9 16-8 13-8 14-9 15-10 16-2 1v-2l-4-2-10-9-4-4-8-7-4-1-3 1-2 5-2 3-4 1-1 2h-2v2l-16 11-11 4-1-3 1-3 6-5 5-8 5-5 3-4-15 4-8-1 5-5 9-7 11-11-1-5-2-4h-2l-5-9-6-22-2-6-2-17v-28l3-14 4-9 5-11 2-5 5-2 2-5 3-5 3-1v-2l6-5 6-8 10-9 6-4 8-6 11-7h2v-2l17-8h6l1-3 3-1z" fill="#20D8F4"/>
<path transform="translate(467,217)" d="m0 0h12l2 3-2 4-8 5-3 4h-2l-2 4-4 4-5 2-4 5h-2l-2 5-5 6-10 10-5 10-2 3v7l-3 5-9 6-7 7-14 16-6 8-4 1h-4l-1 5-7 4-4 6-7 6-6 5-8 5-10 6-7 3-6 1-4-1-2 17-1 9-1 26-2-2v-31l3-22 3-13 4-15 6-16 8-16 7-12 8-11 11-13 15-15 19-14 17-10 11-5 16-6 21-5z" fill="#8F999E"/>
<path transform="translate(510,674)" d="m0 0h6l5 16 4 10 6 19 1 3v8h2l1-8 5-16 8-20 5-12h14l7 21 5 12 6 21 1 1 6-19 3-11 4-10 5-14 1-1h22l-1 9-8 23-4 8-8 24-5 13-6 18-5 1-13-1-5-15-4-10-8-28-6 13-4 14-3 8-2 4-3 14-1 1h-15l-6-14-9-27-10-29-7-20-1-5z" fill="#EEF5F6"/>
<path transform="translate(636,278)" d="m0 0h7l3 1-1 5-9 11-12 13-9 8h2l22-6-2 5h-2l-1 3-6 5h-2l-2 4-11 9-12 11-9 9-1 5-1 3 2 4 8 3h19l4 2 1 4v3 5l-6 5h-2l-1 3-10 6-6 5-5 5-6 7-3 3-1 3-3 3-5 8-3 3-4 7-7 9-8 7-6 8-4 2-2 4-7 6-5 4-3 3-9 3-1 4-6 4-4 5-6 5-5 5-2 4-6 4 2-5 15-16 20-20 7-8 6-7h2l2-4 12-12 7-8 11-12 14-15 7-8 28-28 1-3-14 1h-92l1-6 5-7 10-21 11-20 4-1 2-5 3-3 10 1 9-1 4-2h7l10 5 8-5 10-9 11-9 8-7 2-3h2v-2z" fill="#25EDFA"/>
<path transform="translate(683,674)" d="m0 0h43l13 2 8 4 9 8 4 9 1 4v15l-4 10-4 6-3 1v2l-5 2 1 6 14 21 2 5-7 1h-17l-8-14-8-12v-4l-2 1h-16v28l-4 1h-17z" fill="#EEF5F6"/>
<path transform="translate(451,851)" d="m0 0h109l22 1 7 5 1 4v13l-2 11-7 6h-137l-6-3-2-3v-23l4-9 1-1z" fill="#1FD4F2"/>
<path transform="translate(393,675)" d="m0 0h72v20h-50v17l2-1h40v20h-35l-8-1 1 2 1 16h49v22h-72z" fill="#EEF4F6"/>
<path transform="translate(780,674)" d="m0 0h69l-1 21h-48v16h43v20h-43v17h49v22h-31l-39-1v-90z" fill="#EBF3F4"/>
<path transform="translate(478,308)" d="m0 0 11 1 1 3-9 10-5 8-7 9-7 7-7 8-8 7-3 5-11 12-7 8-10 14h-2l-2 4-8 8-7 8-8 6-3-2v-3h-2l-2-8v-14l2-6 4-9 4-10 3-5 3-6h2v-2h2l2-6 6-10 4-5 4-4h2v-2l8-6h2v-2l3-1 3-3 17-9 11-3 2-1z" fill="#25EFFB"/>
<path transform="translate(287,674)" d="m0 0h22l3 6 4 10 6 14 5 13 3 10 4 7 9-25 14-35h24l-1 8-5 12-17 41-8 19-4 8-3 8h-12l-6-1-8-16-6-14-10-26-7-15-7-20z" fill="#EFF5F7"/>
<path transform="translate(196,550)" d="m0 0h15l10 4 8 8 4 5v3l3 1 2 10v11l-5 12-7 9-10 6-4 1v2h-15l-12-5-4-2-5-5-6-10-2-7v-15l3-10 6-8 7-6 7-3z" fill="#46F9EA"/>
<path transform="translate(468,155)" d="m0 0h49l24 3 3 1v2l5 2 12 7 2 3v3l-12-2-19-5-12-2h-54l-20 3-23 6-23 8-16 8-10 6-7 4-14 10-4 2v2l-11 9-15 14-7 7-4 6-5 5-12 16-8 14-4 13-2 11-1 11-1 3-2 1h-6v-21l4-17 4-9 6-12 14-18 12-13 11-11 6-7 8-7 10-8 11-9 20-12 16-8 36-12 16-4z" fill="#47F7EA"/>
<path transform="translate(287,560)" d="m0 0h19l9 4 8 7 6 8 2 7v12l-3 10-7 9-11 8-7 3h-15l-7-3-9-6-7-8-4-8-1-3v-15l6-11 7-7z" fill="#23F2CC"/>
<path transform="translate(0)" d="m0 0h118l-1 7h5l-2 5 1 3h-2l-1 3-5 1v-2l-3 1-1-3-3 1-2-4-3-1-3 1-4 1v3l3-3 6 2-2 2h-3v2l4 1 2-2 1 4h-3l-1 2-1-2-4 2 2 2 2 3-4-1-2-1v5l-3-2h-2v-2l3-2h-2v-3l3-2-5-2-2 4-5 2-1 5h-2l-1 2-2-1-2 4-1-2 2-6-2-1-1-4h-5l1-3h5v-1l-7 1v3l-4-1 2-5-7 3-7-2-1 3-1 7-1 2-5 1 3 1v2l3 1-4 1 1 2 4-2 2 2 7-6h2v2h2l1-3 1 6-2 5-8 1-2 2h2v2l-3 3h5v2l-7 2-1-2-6 2h-1l-4 2h-3l-1-4v3h-2l-1 2-3-2-2 1-2-1-1 2v-2h-2l-1 4v-3l-4 1-1-2 3-2h3v-2l-8 4h-2l1-4h-3l1-4h-2l2-4 2-2 6 1v-3h-6l2-3-3-1 1-7 3 3v3l1-2 3-1-2-3-2 1-2-8h2v-2h-3v-2l-8 4v3h-2z" fill="#515A5F"/>
<path transform="translate(677,442)" d="m0 0 9 3 1 1-1 10-6 21-11 24-8 12-13 16-14 15-7 7-4 1v2l-10 8-18 12-16 8-19 7-24 6-6 1h-35l-8-3 2-1 1-7 6-2 20-1 26-3 21-6 12-5 15-8 13-9 10-9 8-7 14-14 9-11 10-15 8-16 7-16 6-18z" fill="#23F2CD"/>
<path transform="translate(484,181)" d="m0 0h32l22 3 21 7 5 1v6l-2 3-8-1-21-5-12-1-6-2h-38l-13 2-10 2-23 5-19 7-23 11-10 7-5 4h-2v2l-4 1-1 3-6 4-8 7-5 5-12 13-9 12-7 9-8 14-5 12-6 18-5 1-4-2 1-9 7-20 7-16 11-16 1-2h2l2-4 9-10 15-16 11-9h2v-2l16-11 5-4 19-9 20-8 21-6 20-4z" fill="#44F6E9"/>
<path transform="translate(169,217)" d="m0 0h9v23l2-1h11l1 5-1 1-20 1 7 2 1 4 1 35 3 12v6l8 14 10 11 14 11 11 7 11 4 15 2 2 4-1 3-2 1h-12l-15-3-8-4-14-10 2 4v2h2l1 9-8 3-2-1-2 2-6-3h-5l-3 3-2 5h-13l-3 1-2 2v-9l3-9 5-6h2v-2l11-5-1-4-4 1-5-5 1-6 2-4 3-2-6-10-3-8-3-14-3-10 1-1v-12l-2-1 2-9 3-8v-6l-1-4v-3l1-5-2-2 3-7z" fill="#373E43"/>
<path transform="translate(490,215)" d="m0 0h36l24 3v2h-19l-4 1 1 3h-3l-2 4-8 7-5 5h-3l-2 5-5 5-6 9-1 2 1 5-9 2-10 2-12 3-12 4-20 11-6 4-2-1v-2h2l-1-7 6-11 4-6 5-4h2l2-5 5-6 7-8 5-2 6-7 8-7 5-2-2-8z" fill="#73757C"/>
<path transform="translate(381,330)" d="m0 0 4 1-2 5-4 6-3 7-8 22-4 15-1 11v18l-2 3-3-1-20 5-10 2-2 1h-6l-4-2 4 26 6 22 2 5-2 1-8-23-4-16-1-14 1-26 2-18 2-8 10-1 11-5 3-3 6-3 5-3h2l2-4 6-4 4-4 3-5 7-4 1-4z" fill="#717279"/>
<path transform="translate(169,674)" d="m0 0h22l1 25v46l-1 4 5-1h42l1 22h-70z" fill="#EDF4F5"/>
<path transform="translate(320,127)" d="m0 0 10 1 10 5 6 7v2h2l2 5v10l-2 11-7 11-7 7-12 6-6 2h-6l-8-5 1-3 13-9 11-8 5-8v-9l-4-6h-9l-10 5-7 7-7 9-9 10-7 7-14 8-9 3h-8l-9-5 1-3 15-9 10-5 7-7 9-11 11-12 10-9 12-6z" fill="#46F9E9"/>
<path transform="translate(274,406)" d="m0 0h12l1 3v11l-3 13-2 16-1 1-1 23 1 9 4 15 5 10 4 10v2h2l5 9 3 5 3 2v3h2l4 8-1 5-4-2-8-7-9-12-6-9-10-23-3-10-1-7v-34l2-30-73 1-8 1-3 3-16 12 1 2v22h13v4h-17l-1-23-1-3h-2l-1-10 3-4h2l2-4 7-6h2v-2l13-2 4-1z" fill="#26EDFA"/>
<path transform="translate(260,95)" d="m0 0h3l1 2h3 3l3-1 6 2 1 5 7 1 10 2-5 4-2 1-1-2v4l4 1 1-5 4-1 1-3 1 2 2-2 3 1-1 8-4 1v1l2 1-1 1h-8l-2 5-4 4-2-1 1-2-5 5-1 4-4 3-2 4-14 9-1 2-5 3-4 5h-2l-1 9 1 9-3 3-5 2-6-1-2-3-3-2-3-4-1-7-2-9 2-1 2-7 1-2h-2v-2l4-1 2-4h-2v-2h5l3-1v-2h2l1-6h7l1-3 5-1 4 1 1-5 3 1 1 2 5-2-2-3-3-3-3 1h-1v2l5-1v4l-1-2h-7l-4 3-4-3v2l-3-1 1-5h3l-4-1v5l-2 1-1-3-1-2-1 3-4-3v-2l-2-1h2v-2h2v2l4-4h3l-1-2-1-3h2l2-4 2 6h3v-2h2v-2l5-4z" fill="#3A4348"/>
<path transform="translate(705,489)" d="m0 0 3 2 2 5v8l-5 12-8 11-32 32h-2l-2 4-52 52-5 2v2l-14 9-9 3h-5v2l-8 1h-72l-9-1-3-2 1-5 8-1 73-1 14-3 13-7 13-11 20-20 7-8 7-7 8-7 13-13 7-8 12-11 11-12 6-9 4-10 3-8z" fill="#43F5E9"/>
<path transform="translate(436,862)" d="m0 0h2l1 9h2l2 3 4 1 1-9 5-1v11h8l2 1 1-13h4l1 4v12h2l2-12v-3l5 1 2 7 3-3 2-5h2l-1 7-4 10 4 1 3-2 1-3 1-11 1-2 10-1v8l4 6 4 4h5l1-5-1-11h4v7l2-1 1-5 5 1 3 4 2-5h2l-1 8-1 4h2l1-2 2 1 1-10 1-2h4v14l5-1v-14h5l5 6 1-6h3v14 1h2v2h2l2-17h9l-1 4h-6v4h5v3h3l-1 4-5 1 2 3 8 3 2 2-3 2h-137l-6-3-2-3z" fill="#1BADDB"/>
<path transform="translate(500,282)" d="m0 0h6v2h2l1 4-3 5-9 11-1-3 1-5h-13l-19 3-9 4-22 11h-2l-1 3-6 4-8 7-1 2h-2l-2 4h-2v2h-2l-2 5-6 7-16 24-5 8-3 8-3 21v14l2 11 2 15 1 9 2 7 6 5 3 5 1 3-3 3-3-5-1-3h-2l-5-9-6-22-2-6-2-17v-28l3-14 4-9 5-11 2-5 5-2 2-5 3-5 3-1v-2l6-5 6-8 10-9 6-4 8-6 11-7h2v-2l17-8h6l1-3 3-1z" fill="#157AAE"/>
<path transform="translate(609,338)" d="m0 0 3 1v6l3 1v2l6 2 6 4 3 5 3 7-1-10 2 2 6 21 1 15v22l-1 14-3 10-2 10-5 11-2 5-12 19-6 8h-2l-1 4-10 10h-2l-2 4-14 11-21 11-12 4-14 4-8 1h-32v-2l-8-1-11-3 6-8 5-4-1 4-2 1-1 3h-2l2 3 16 3 1-4 4-3 10-3 2-2 24-1 19-3h8l2-4 7-3h5l12-11 2-3h3l2-4 5-5 1-3 2-1 2-7 3-1 1-4 7-4 4-8 3-5 1-8 4-6 5-26 1-2v-34l-3-10-5-5v-2l-9-3-16-3-5-4-7 2 2-4z" fill="#157CB0"/>
<path transform="translate(467,217)" d="m0 0h12v1l-24 4-20 6-8 3-1 5h-2l-1 7-7 10-1 3-8 7-4 5h-2l-2 5-11 8-7 6-3 4h-2l-2 4-5 4-3 4h-2v2l-8 7-5 2-11 1-1-6-2 2-1-2 7-12 8-11 11-13 15-15 19-14 17-10 11-5 16-6 21-5z" fill="#AAC5CC"/>
<path transform="translate(484,295)" d="m0 0h11l2 1-1 10-5 5h-2v-2h-11l-12 1-5 2-10 3-15 8h-2l-1 3h-3v2l-6 4-4 2v2h-2l-2 4h-2l-2 4-4 5-6 12h-2v2h-2l-1 4-7 14-4 11-2 2-1 5v14l1 8h2l2 3 1 4-2 4v5l-1 2 1 15 6 12 2 7-2 4-3 1-4-5-3-5h-2l-3-5-1-5-1-9-3-23-1-8v-10l2-13 2-10 5-10 16-24 7-9 4-6h2v-2l4-4h2l2-4 11-9 6-5 13-6 10-5 7-3z" fill="#1CBEEC"/>
<path transform="translate(253,674)" d="m0 0h22l1 5 1 52v37l-1 2h-23z" fill="#F2F8F9"/>
<path transform="translate(425,447)" d="m0 0h7l7 3 1 1v6l-6 9-3 4h-3v2l-4 4h-2l-1 4-3 3h3l-1 4-5 4-4 2-3 4-3 5h-2l-2 5-2 3-4 1-1 2h-2v2l-16 11-11 4-1-3 1-3 6-5 5-8 5-5 3-4-15 4-8-1 5-5 9-7 16-16 8-7 6-7 4-5 8-7z" fill="#24EEFB"/>
<path transform="translate(640,674)" d="m0 0h21l1 15v65l-1 14-3 1h-18z" fill="#F3F9FA"/>
<path transform="translate(487,270)" d="m0 0h25l7 3 2 2 2-1-1 3h-2l-2 4-9 9-1-4v-2h-2v-2l-18 2-19 1-3 1-1 2-9 2-11 6h-3v2l-13 8-3 3-5 3-9 7-9 8-5 7h-2l-1 3h-2v2l-4 3-4 8-5 3-5 14-2 2-3 8-1-3 4-11 2-9 7-14 5-7 2-1 3-6 10-11 7-8 8-8 15-10 22-11 16-5z" fill="#175C76"/>
<path transform="translate(904,885)" d="m0 0 7 1-5 6-13 6h-2v2l-7 2v2h-3v2l-20 12-17 11h-2v2l-9 5h-2l-1 3h-3l-1 3-5 2v2l-10 7-11 7-17 11-16 11-13 8-10 8-11 7-11 5-25 5-2 2h-9v-2l10-5 6-2 13-4 9-3 11-7 10-8 15-9 15-10 10-7 13-8 20-14 12-9 11-8 11-7 9-6 21-12 7-2z" fill="#164355"/>
<path transform="translate(732,515)" d="m0 0 5 1 1 5-2 5-8 7-9 10h-2l-2 4-13 13-7 8-6 5-7 8-12 11-30 30-8 7-5 4-4 4-4 2h-3l1-5 7-9 10-11 5-5 9-10 17-17 8-7 26-26 7-8 8-9 6-5 7-8z" fill="#41F4E9"/>
<path transform="translate(202,571)" d="m0 0 7 1 6 5 2 5v7l-4 7-4 3-5 1v2l10-3v2l2-1v8l2 4-3 2-7 1-8-3-5 5-8 1-6-3v-3l-2-5v-3l-5-2 2-1v-6l3 1 2 3v-6l-1-3 3-7-1-2-2 8-4 5h-2v-2l-3 1-1-8 1-3 3-1 2-5h5l5 3v2h2v2h2l2-6 6-5z" fill="#26EEFA"/>
<path transform="translate(478,308)" d="m0 0 11 1 1 3-7 6h-2l-1 2-17 2-9 3-7 4-7 3-7 4-5 5-7 6h-2l-2 4-8 13-6 10-3 4-4 9-4 8-2 20v7h2l-2 4-4-2v-3h-2l-2-8v-14l2-6 4-9 4-10 3-5 3-6h2v-2h2l2-6 6-10 4-5 4-4h2v-2l8-6h2v-2l3-1 3-3 17-9 11-3 2-1z" fill="#20D7F4"/>
<path transform="translate(293,454)" d="m0 0 4 2 6 16 5 16 4 10 3 6v2h2l4 8 7 8 6 8 9 11 5 6 5 5 5 4 5 5 11 10 6 4v6l-4 1-8-4-4-4-4-2-3-3-5-4-22-22-7-9-10-13-8-14-5-10-4-11-3-15-1-15z" fill="#24EBF9"/>
<path transform="translate(291,572)" d="m0 0h9l10 5 6 7 2 4v8l-5 9-7 7-8 3-10-2-8-5-4-5-3-8 1-8 9-10 5-4z" fill="#25292F"/>
<path transform="translate(927,826)" d="m0 0 4 2v4l-5 3h-2v2l-15 8-9 5-13 7-14 8-17 10-5 3h-3v2l-15 9-9 7-3 3-5 3-4 4-9 5-5 3-5 5-19 14-10 4-3-1 1-3 9-7 10-7 8-4 9-7h2v-2l5-2 1-4 12-10 15-10 13-9 18-11 11-6 15-8 11-8 19-9z" fill="#16556D"/>
<path transform="translate(274,406)" d="m0 0h12l1 9-11 3v-2h-68l-16 1-1 4-6 4-12 9 1 2v22h13v4h-17l-1-23-1-3h-2l-1-10 3-4h2l2-4 7-6h2v-2l13-2 4-1z" fill="#2CF0F7"/>
<path transform="translate(170,250)" d="m0 0h6l2 5 1 33 3 14 6 12 6 8 7 8 14 11 11 7 11 4 15 2 2 4-1 3-2 1h-12l-9-2-15-8-15-11-11-9-8-10-6-10-5-16-2-12v-30z" fill="#42F7EB"/>
<path transform="translate(729,554)" d="m0 0 5 1 1 1v8l-2 3h-2l-2 4-7 8-13 12-29 29-4 5h-2l-2 4-12 12-7 4-5-1 1-7 7-9 9-10z" fill="#24F2CF"/>
<path transform="translate(207,216)" d="m0 0 4 1 6 8 3 5v2l4 1 9-14h4l1-2h20l-1 5h-12v7l3-1h8v6h-11l-1 6h13v4h-17l-1-2h-7l-3 1-1 9-2 9 11 22v6l-3-1-7-9-6-14-8 11-3 6-6 4h-2l1-7 8-18h2l1-4 6-12v-3l-2-1-3-8-4-8-3-2z" fill="#565E64"/>
<path transform="translate(301,113)" d="m0 0h4v3l2-1v3h-5l-1 4-6 2v5l-2 2v6l2 2h-3l-2 7-11 12-9 11-8 7-15 7v-10l-1-7 2-7h2l2-4 4-4h3l1-3 11-7 3-2 3-5 3-3 2-5 4-2 1 2 6-8 5-1-1-2z" fill="#25272C"/>
<path transform="translate(451,851)" d="m0 0 66 1v1l-20 1 3 1 1 8h-5v2h-4l-1 13-2 5-5 1-4-3 2-1 4-10 1-5-2 1-3 7-2 2-2-5v-4l-5-1 1 6-3 9h-2l-1-16h-4v11l-1 2-10-1v-11l-4 1-1 9-2 1-5-3v-2h-2l-2-9 1-6 3-4z" fill="#24EAF8"/>
<path transform="translate(589,358)" d="m0 0 3 1-2 5 2 4 8 3h19l4 2 1 4v3 5l-6 5h-2l-1 3-10 6-6 5-5 5-6 7-3 3-1 3-3 3-5 8-3 3-4 7-7 9-8 7-6 8-4 2-2 4-7 6-5 4-3 3-9 3-1 4-6 4-4 5-6 5-5 5-2 4-6 4 2-5 15-16 20-20 7-8 6-7h2l2-4 12-12 7-8 11-12 14-15 7-8 28-28 1-3-14 1h-26l-6-1 2-2v-3l5-5z" fill="#1DC5EE"/>
<path transform="translate(575,310)" d="m0 0h7l10 5 4-1-4 4-8 7-10 11-16 3-5 2h-10l-3 3-6 2-5 8-6 11-5 5 2-5 8-16 13-25 4-4h2l2-5 3-3 10 1 9-1z" fill="#157BAF"/>
<path transform="translate(484,183)" d="m0 0h49l15 4 11 4 5 1v6l-2 3-8-1-21-5-12-1-6-2h-38l-13 2-10 2-21 4-5-2v-4l5-3 30-6z" fill="#25EEFB"/>
<path transform="translate(217,553)" d="m0 0 5 2 7 7 4 5v3l3 1 2 10v11l-5 12-7 9-10 6-4 1v2h-15l-9-4 3-1 7-3 3-3 8 3 8-2-2-6v-5h-3l6-11-1-10-2-7 2-3-1-9-1-6z" fill="#25ECFA"/>
<path transform="translate(623,215)" d="m0 0 7 2 11 8 6 5 27 27 7 8v2h2l10 13 5 7 2 5-1 5-5-1-4-2-7-8-7-9v-2l-3-1-4-6-13-14-16-14-8-5v-2l-6-2-8-6v-5z" fill="#20D4EF"/>
<path transform="translate(530,216)" d="m0 0 14 1 6 1v2h-19l-4 1 1 3h-3l-2 4-8 7-5 5h-3l-2 5-5 5-6 9-1 2 1 5-9 2-10 2-11 2v-6l3-3 2-1 4-8 3-1 2-4 9-7 1-2h2l2-4 9-7 5-2 2-5 2-2 1-3z" fill="#515B60"/>
<path transform="translate(618,474)" d="m0 0 1 2-8 12-12 14-8 8-9 7-14 9-12 6-19 6-19 4h-26v-2l-8-1-11-3 6-8 5-4-1 4-2 1-1 3h-2l2 3 16 3 1-4 4-3 10-3 2-2 24-1 19-3h8l2-4 7-3h5l12-11 2-3h3l2-4 5-5 5-3 6-8z" fill="#1579AB"/>
<path transform="translate(596,313)" d="m0 0m-1 2v3l-5 4-2 4-4 2-5 5-10 9-6 10-4 2-3 6h-2l-1 4-3 9v1h-32l1-5 6-9 5-9 4-7 7-2 2-2h11l9-3 11-2 14-15z" fill="#1BBDEC"/>
<path transform="translate(776,535)" d="m0 0h7l6 9 11 25 4 6v7l-7 18-5 13-7 16-5 1-6-1 3-12 8-19 6-16 1-5-4-5-6-15-8-16-1-4z" fill="#E9F0F2"/>
<path transform="translate(600,608)" d="m0 0h4v2l2 1-1 4-4 1v2h-2v2h-2v2l-12 6-5 2h-4v3l-8 1h-72l-9-1-3-2 1-5 8-1 73-1 14-3 13-7z" fill="#23F1D5"/>
<path transform="translate(468,155)" d="m0 0h49l24 3 3 1v2l5 2 12 7 2 3v3l-12-2-19-5-12-2-45-1 1-2-8-1-5 2-12 2h-11l1-3 8-2 10-3 9-1h17l4-1h-18l-20 1v-1z" fill="#24E7F6"/>
<path transform="translate(268,125)" d="m0 0h9l3 2-2 5-8 7-12 8-9 7-5 7-4 10-4 2-6-1-3-9 1-9 5-10 9-9 9-6 10-3z" fill="#92ECEB"/>
<path transform="translate(356,392)" d="m0 0 5 1 2 4v18l-2 3-3-1-20 5-10 2-2 1h-6l-4-2-1 3v-21l4 2 9-4 3-2 15-4z" fill="#515B60"/>
<path transform="translate(166,409)" d="m0 0 1 2 5 1v-3h3v3l6-1-5 4-6 7h-2l-2 6v8h2l2 3v23h17v1l-17 1-3 2-4-1-4-2h2l-1-2-6-1v-3l-2-2v-5l-7-1-1-3h-2l-1 2-2-10h3l3 1 1-2h2l1 2 1-4h2l-2-4-3-3 2-2 2 1 1-2h2v-2h-2l1-4 3-1 3-2v-3l6-3z" fill="#3D464B"/>
<path transform="translate(563,280)" d="m0 0 1 2h3v2l4 2v2l4 2 16 13 8 7 2-4 11-9 7-6h2v-2l3 1-12 11-11 9-5 4-5 2-9-5h-7l-9 3h-10l-4-1-5 7-3 1 2-6 5-11 3-7h2l3-9z" fill="#195E77"/>
<path transform="translate(321,103)" d="m0 0 7 2 4 2-1 2h2v2h-3v2l5 1 3-2 1 2h-2l-1 6 4 1 3 1-1 5-1 3 3-1 1 4 2 6h2l2 7-2 1-1-5h-2l-6-8-10-5-10-1-9 2-10 6-9 8-2-3h2v-4-6l2-2 1-5 6-3 1-3h5l-1-2-2 1 1-4 4 1 2-5 3-1 1-2 1 4 1-5h4z" fill="#384247"/>
<path transform="translate(721,174)" d="m0 0 2 2 1 294 2 11-3-3-3-12v-291z" fill="#A4BBC1"/>
<path transform="translate(185,147)" d="m0 0h7l8 4 4 5v4h2v10l-8 9-5 3-9-1-7-4-3-4-1-4v-8l4-8 5-5z" fill="#E8F1F2"/>
<path transform="translate(667,157)" d="m0 0 13 1 7 1 5 4 1 5-1 5-8 7v6l-5 6-5 1-7-1-3-5-1-8-4-5-4-1 1-7 5-6h3v-2z" fill="#174152"/>
<path transform="translate(744,535)" d="m0 0h5l4 7 4 10 5 9 5 14 1 3v10l-2 8-7 16-5 15-4 2-5-2 1-9 4-12 6-12 3-4v-9l-3-10-5-11-7-16-1-8z" fill="#858E93"/>
<path transform="translate(275,344)" d="m0 0h11l6 4 4 8v10l-4 7-5 3h-11l-7-4-5-8v-11l3-5z" fill="#EDF3F5"/>
<path transform="translate(436,862)" d="m0 0h2l1 9h2l2 3 4 1 1-9 5-1v11h8l2 1 1-13h4l1 4v12h2l2-12v-3l5 1 2 7 3-3 2-5h2l-1 7-4 9h-2l-1 5-2 2-10 2h-25l-5-3-1-2z" fill="#1EC2E1"/>
<path transform="translate(677,442)" d="m0 0 9 3 1 1-1 10-6 21-11 24-3 4h-3l-1-4v-8h-2v-2h-2l-2 5-5 9-2-2 9-16 7-14 6-16 5-14z" fill="#43F6E9"/>
<path transform="translate(73,105)" d="m0 0 4 1v5l1 2h-3l-2 5 4 3v-2l6-2v-2l4-2 1 1 2-2 1 3h2l2-4 5-1 3 2-3 4 3 2h-6l2 2 8-3v2h2v2l-5 2-2 2-1-3-3 4-1 4 3-1 1-1-2-1 1-2 5 2 2 1-5 5h-2v2l6-2 5-2-1 3-7 4-2 2v-2l-6 1 1 4-4-3-1-3 1-1-2-1v2l-4 1-2-2h-5l3 2-4 1-4-3-6-1-1-2h-2v2l-3 1 2-6 4-2 1-3-1-6 1-5h3l-2-2z" fill="#484B50"/>
<path transform="translate(705,695)" d="m0 0h23l7 3 3 3 1 3v8l-3 5-7 3-24 2z" fill="#292A2F"/>
<path transform="translate(155,258)" d="m0 0 1 2v9l2 1-1 7 1 2-4 4 3 1 1 3 1-4h2v9l3-1 1-2h2l3 14 4 10 5 8-1 2h-3l1 3-3-1v-2l-2-1-2-5-7 2 1-4h-4l-5 4v-5l1-3h-2l-1-2-6-1 1-2 4 1v-2l-4-1 1-3h3v-3l-4 1-1-5-1-4v-4l5-1 1-2-2-1 2-1-2-2 1-2h2l-1-4-3-2 2-3 1-1-1-5 3-3zm16 68 2 2h-2z" fill="#384045"/>
<path transform="translate(824,912)" d="m0 0h3v3l-10 7-16 9-9 6-14 8-22 12-12 7-9 4h-6l2-4 7-5 4-4 19-12 18-8 11-7 10-6z" fill="#164354"/>
<path transform="translate(488,290)" d="m0 0h11l5 2-2 1 1 4-6 7-1-3 1-5h-13l-19 3-9 4-22 11h-2l-1 3-6 4-8 7-1 2h-2l-2 4h-2v2h-2l-2 5-6 7-16 24-5 8-3 8-3 21v14l2 11v8l-2-2-2-16v-29l4-15 6-9 9-16 3-6 4-5 7-8 6-7h2l2-4 10-9 14-10 16-8 10-4 7-2z" fill="#1B99C2"/>
<path transform="translate(410,334)" d="m0 0 2 1-6 9-4 5h-2l-2 6-6 11-11 23-2 3-1 8 1 20 2 5 3 31 8 15-1 7-5-5-3-5h-2l-3-5-1-5-1-9-3-23-1-8v-10l2-13 2-10 5-10 16-24 7-9 4-6h2z" fill="#129DF9"/>
<path transform="translate(332,133)" d="m0 0 6 1 8 6v2h2l2 5v10l-2 11-7 11-7 6v-2h-2v-6l-1-5 4-13-2-9-4-6 2-10z" fill="#26EEFA"/>
<path transform="translate(180,342)" d="m0 0h13l6 3-2 5-3 3-3 6v1l-7 1-3 3-2 5h-13l-3 1-2 2v-9l3-9 5-6h2v-2z" fill="#717279"/>
<path transform="translate(328,524)" d="m0 0 5 5 11 13 4 5 5 5 5 4 5 5 11 10 6 4v6l-4 1-8-4-4-4-4-2-3-3-5-4-22-22-3-4v-7l3-1-2-4z" fill="#1BB8E4"/>
<path transform="translate(381,255)" d="m0 0 3 1-3 3 9 1 2 4-5 8-8 7-11 12-9 6-4-1-1-7 7-10v-3l3-5 13-13z" fill="#96ECEB"/>
<path transform="translate(259,120)" d="m0 0 3 1 1 2 4-2 10 2 1-3 3 7-6-1-14 1-12 4-10 8-7 8-4 11 1 8 1 6 9-1 5-11 6-8 15-11 11-8 4-4 1 3-5 4-2 4-14 9-1 2-5 3-4 5h-2l-1 9 1 9-3 3-5 2-6-1-2-3-3-2-3-4-1-7-2-9 2-1 2-7 1-2h-2v-2l4-1 2-4h-2v-2h5l3-1v-2h2l1-6h7l1-3 5-1 4 1z" fill="#15475C"/>
<path transform="translate(186,318)" d="m0 0 7 6 11 8 12 10 10 6 11 4 15 2 2 4-1 3-2 1h-12l-9-2-15-8-15-11-11-9 2-1-3-5-4-4z" fill="#40F4EA"/>
<path transform="translate(745,124)" d="m0 0h104l58 1 5 1v1l-149 1-24 1-8 7-5 9-1 4-1 22-3 1v-26l4-9 7-8 8-4z" fill="#6E7379"/>
<path transform="translate(761,250)" d="m0 0 4 1 1 5 6 2 15 1 4 2 1-2h5l4 1v3h-4v7h4l1 4h-6l-4-3v-5h-2l-2 9h-12l-1-6-3 3-2 4h-9l-1-2v-23z" fill="#153E51"/>
<path transform="translate(202,571)" d="m0 0 7 1 6 5 2 5v7l-4 7-4 3-3 1h-7l-3-1v-2l-3-1-3-5v-10l4-6 4-3z" fill="#25292F"/>
<path transform="translate(571,853)" d="m0 0h13l5 4 1 4v13l-2 11-3 3-4-1-8-3-3-3 7-2 1-3h-3v-3h-5v-4l6-1 1-3h-9v11l-2 6h-2v-2l-4 1 1-2 1-14h1l1 9 2-6 2-7 2-1z" fill="#1BB6E5"/>
<path transform="translate(815,535)" d="m0 0h7l4 5 9 21v7l-5 12-7 13h-2l-1 3-5-5-1-5 9-16 1-9-8-19z" fill="#A1B8BF"/>
<path transform="translate(489,432)" d="m0 0 4 1-5 8-5 1-2 7-5 3h-2l-1 2h-5l-7-6v-2l-5-2-3-5v-2l-13-2-24-1v-1z" fill="#1CBCEA"/>
<path transform="translate(904,885)" d="m0 0 7 1-5 6-13 6h-2v2l-7 2v2h-3v2l-20 12-17 11h-2v2l-9 5h-2l-1 3h-3l-1 3-5 1-1 2-5 1-1-2h2v-2l10-8 8-6h4l1-3 5-4h2v-2l5-2 8-6 11-6 14-9 10-5z" fill="#165871"/>
<path transform="translate(637,274)" d="m0 0 6 1 5 2 1 3-1 4 5 2v2h2v5l-9 12-2 4-5 3h-3l-19 5-3 1 2-4 12-11 10-11 7-9 1-4h-10l-3 1v2l-5 4-1-3 3-3h2v-3z" fill="#175C76"/>
<path transform="translate(462,851)" d="m0 0h98v1h-32v2h-8l-6 2 1 6 7 3 6 2-1 2-5-2v5l-3 1v-7h-4l2 11-1 5-1 1h-5l-1-3-4-2-4-6 1-8-6 1v-2h5l-1-8-10-1v-1l-28-1z" fill="#1EC9E9"/>
<path transform="translate(530,800)" d="m0 0 7 1 6 5 2 4v8l-4 6-6 4h-6l-6-4-4-5v-10l6-7z" fill="#EAF2F3"/>
<path transform="translate(169,217)" d="m0 0h9v23l2-1h11l1 5-1 1-20 1 7 2 1 4 1 35 3 12-2 3-3-14-1-33-1-4h-6l-2 1-1 8v29l-2-4-2-6 1-1v-12l-2-1 2-9 3-8v-6l-1-4v-3l1-5-2-2 3-7z" fill="#4E5459"/>
<path transform="translate(572,338)" d="m0 0 2 1v2h7l-2 3h-3l-1 4-1 8-3 2-2 5-2 4v4h8v-2l3 1 2 3-4 1-23 1h-37l1-6h1v5l31-1 3-9 2-4h2l2-6 5-2 2-4 5-8z" fill="#20DAF5"/>
<path transform="translate(734,800)" d="m0 0h6l5 3 5 6v8l-4 7-4 3h-10l-6-5-2-4v-7l4-7z" fill="#E9F0F2"/>
<path transform="translate(807,224)" d="m0 0h7v2h3l1 3 2-3 8 1v2h2v-3h4l-1 6-4 9-3 1-8-2-1-1-1 3-5 1-5-7-4 6h-7l-4-5 1-8 1-1h13z" fill="#1B586E"/>
<path transform="translate(654,801)" d="m0 0h14l6 4 2 3 1 9-3 6-6 4h-15z" fill="#ECF3F5"/>
<path transform="translate(554,801)" d="m0 0h13l5 3 4 6v9l-5 6-5 2h-13z" fill="#E9F0F2"/>
<path transform="translate(221,586)" d="m0 0h5l2 14v2 2l3 1-4 7-9 6-6 2v2h-15l-9-4 3-1 7-3 3-3 8 3 8-2-2-6v-5h-3l8-14z" fill="#20D5F2"/>
<path transform="translate(285,273)" d="m0 0 6 2-3 5 1 3-5 13-3 15-1 11-1 3-2 1h-6v-21l4-17 4-9 2-5 1 2h2z" fill="#2BF0F7"/>
<path transform="translate(319,145)" d="m0 0h9l4 5 1 2v9l-6 9-11 8-3 1 2-4 6-5 1-2h2l4-8h2l-1-8-1-3-9 1-11 7-6 7-1 2h-2l-2 4-7 8-9 9-4 2-3 3-8 4-8 1h-12l-7-4-5 1 1-5 4-1v2l5 2 4 2h8l11-4 12-7 13-13 11-14 9-8z" fill="#175871"/>
<path transform="translate(423,488)" d="m0 0 6 2 3 3 2 12v16l3 2-1 3v-2l-4-2-10-9-4-4-8-7-4-3 12-9z" fill="#129DFA"/>
<path transform="translate(223,246)" d="m0 0 1 3h2v12l11 22v6l-3-1-7-9-6-14-8 11-3 6-6 4h-2l1-7 8-18h2l1-4 4-8z" fill="#A4BBC1"/>
<path transform="translate(248,800)" d="m0 0 15 1 5 3 2 3v7l-4 4 1 4 3 5-1 1-7-1-3-6-4-1v7h-7z" fill="#E7EFF1"/>
<path transform="translate(632,356)" d="m0 0 2 2 6 21 1 15v22l-1 14-3 10-2 10-5 11-2 5-12 19-6 8h-2l-1 4-10 10h-2l-2 4-14 11-21 11-12 4-14 4-14 1 4-2 19-4 17-6 12-6 15-10 15-14 11-13 8-12 6-10 7-17 4-14 2-14v-31l-2-16-4-13z" fill="#A7D2D6"/>
<path transform="translate(427,480)" d="m0 0h8l10 4 2 5-3 9-1 6-5 8-2 9h-3v-19l-2-9-6-4-9 3-6 5-3-1 3-1 2-4 7-4 3-3h2v-2z" fill="#1CBEEC"/>
<path transform="translate(563,337)" d="m0 0h5l-2 4-6 2-1 3-6 4-3 1-1 3-5 5-9 4-6 1-3-1v-5l8-14 7-2 2-2h11z" fill="#129DFA"/>
<path transform="translate(333,159)" d="m0 0 1 3-2 13 1 3-1 5h2v3l-12 6-6 2h-6l-8-5 1-3 13-9 11-8z" fill="#44F7EA"/>
<path transform="translate(758,800)" d="m0 0 16 1 4 4 1 2v8l-4 3 1 4 3 5h-7l-4-6-4-2v9h-6z" fill="#E6EDEF"/>
<path transform="translate(863,534)" d="m0 0 7 2 5 5v10l-3 5-5 3h-8l-6-5-1-3v-10l4-4h2v-2z" fill="#1BB6E3"/>
<path transform="translate(451,851)" d="m0 0h11l3 1 15 1v1l-9 2-4-1-1 6-9 2h-2v3h-6l-1 9-2 1-5-3v-2h-2l-2-9 1-6 3-4z" fill="#21D7F2"/>
<path transform="translate(178,557)" d="m0 0 2 1-6 7-4 8-1 5v15l4 11 3 5 5 4v2l4 1 12 5 15 1v-2l11-6 5-5 6-9 3-8v-11l-1-9 3 3 1 3v14l-3 10-7 11-9 7-3 3-7 2h-13l-9-3-7-5-6-2-4-5v-2l-3-1-2-5-3-10-1-6 2-7h2l1-9 4-9h2z" fill="#224B5D"/>
<path transform="translate(375,130)" d="m0 0h5l5 7 4-1 5-6h6l1 1v5l-6 6h-2l1 4 6 6 1 4-1 2h-5l-6-7-5 2-2 3h-2v2l-5-1-1-4 8-11-4-2-5-5z" fill="#E4EDEE"/>
<path transform="translate(563,280)" d="m0 0 1 2h3v2l4 2v2l4 2 16 13 8 7 2-4 11-9 7-6h2v-2l3 1-12 11-11 9-3 3-4-1-8-6-3-2-6-2-12-5v-2h-5l-3 1-1 4-2 4-1-3z" fill="#17495B"/>
<path transform="translate(532,157)" d="m0 0 9 1 3 1v2l5 2 12 7 2 3v3l-12-2-19-5-12-2 1-2-5-1v-2h-3v-4h19z" fill="#20D7F3"/>
<path transform="translate(280,503)" d="m0 0 4 2v-2l5 2 5 12v2h2l5 9 3 5 3 2v3h2l4 8-1 5-4-2-8-7-9-12-6-9-1-6-4-9z" fill="#20D6F1"/>
<path transform="translate(415,800)" d="m0 0 5 1 7 11 4-5 4-7 5 1v26h-5l-1-14-6 9-4-2-3-6-1 14h-5z" fill="#EAF2F3"/>
<path transform="translate(582,324)" d="m0 0 2 1-10 11-16 3-5 2h-10l-3 3-6 2-5 8-6 11-5 5 2-5 10-20 5-5 4-8 4-1 2 1h11l9-3 5-2 11-2z" fill="#1C9AC3"/>
<path transform="translate(589,358)" d="m0 0 3 1-2 5 2 4 8 3h19l4 2 1 4v3 5l-6 5h-2l-1 3-10 6-6 5-5 5-4 2 6-7 16-16 3-5 6-6 1-3-14 1h-26l-6-1 2-2v-3l5-5z" fill="#1DBEE7"/>
<path transform="translate(744,535)" d="m0 0h5l4 7 4 10 5 9 4 11v11l-5 4-5-16-5-11-7-16-1-8z" fill="#E7EFF1"/>
<path transform="translate(705,489)" d="m0 0 3 2 2 5v8l-3 3-4 10-9 10-6 5h-2l-1 3-5-1 1-4 3-4 3-5 6-7 4-6 4-10 3-8z" fill="#22EECB"/>
<path transform="translate(487,270)" d="m0 0h25l7 3 2 2 2-1-1 3h-2l-2 4h-3l-1-3-10-5h-12l-17 2-4 2-13 2-5 3-7 3-9 6-12 7h-2v2l-3 2h-3l-1 3h-2v3l-6 4-7 7-1 2h-2l-1 3-2-1 9-11 13-13 15-10 22-11 16-5z" fill="#164355"/>
<path transform="translate(623,215)" d="m0 0 7 2 11 8 6 5 3 4-3 2-2 4-2 2-11-7v-2l-6-2-8-6v-5z" fill="#165972"/>
<path transform="translate(675,262)" d="m0 0 4 3v2h4l10 13 5 7 2 5-1 5-5-1-4-2-7-8-7-9v-2l-3-1-3-5v-5l3 3 3-2z" fill="#1BB9E9"/>
<path transform="translate(709,614)" d="m0 0h6l8 9v9l-2 5-4 2h-7l-6-7v-11l4-6z" fill="#24ECFA"/>
<path transform="translate(180,477)" d="m0 0 3 1 3 14h2l2-9 1-5h5l-2 9-5 15-1 2h-3l-3-9-1-5-4 10-2 4-3-1-6-22v-3h4l4 12 2-2 3-10z" fill="#DFE8EB"/>
<path transform="translate(824,886)" d="m0 0h2v2l-8 6-5 4-3 5h5l-5 4-7 4-5 3-5 5-19 14-10 4-3-1 1-3 9-7 10-7 8-4 9-7h2v-2l5-2 1-4 12-10z" fill="#174557"/>
<path transform="translate(882,896)" d="m0 0 2 1-19 12-11 6-4 4h-4v2l-7 5-1 2-7 3-13 11h-2l-1 3h5l1-3 3 1-3 1v2l-10 7-11 7-7 3-7 4-3-1 1-3 18-12 5-5 19-14 11-8 8-6 7-4 9-6z" fill="#164355"/>
<path transform="translate(589,407)" d="m0 0 2 1-12 13-7 8-7 7-7 8-11 12-7 8-13 13-7 8-23 23-9 11-12 14-4 3v-4l13-14 7-8 6-7h2l2-4 19-19h2l2-5 10-10 1-2h2l2-4 15-15 6-8h2l2-4 18-18z" fill="#95EFED"/>
<path transform="translate(277,399)" d="m0 0 4 2h2l4 1 2 4v17l-2 15-3 12-2 6-1 26h-1l-1-15 1-17 1-1 3-22 2-7v-14l-12 1h-63v-1l15-2h38l4-1 8 2z" fill="#16526B"/>
<path transform="translate(181,410)" d="m0 0h7l-4 3-5 1-2 4-4 5-1 6 10-7 8-4 2 1-3 3-16 12 1 2v22h13v4h-17l-1-23-1-3h-2l-1-10 3-4h2l2-4 7-6h2z" fill="#154F68"/>
<path transform="translate(313,800)" d="m0 0 4 1 6 12 4 9v6h-5l-1-5h-13v5h-5v-6l7-16z" fill="#E7EEF0"/>
<path transform="translate(314,128)" d="m0 0h10v1l-7 1-13 7-5 4-5 7-2 4-4 2-2 2-3 1-1 3-4 4-3 5h-2v2l-6 5-6 3-12 7 2 8-7-1-5-3 1-3 15-9 10-5 7-7 9-11 11-12 10-9z" fill="#92E8E7"/>
<path transform="translate(939,832)" d="m0 0h8v4l-5 5-4 3h-2v2l-13 9-9 7-15 9-6 1 1-3 11-7 4-2v-2l6-2 4-5h2l2-4 6-7h2l2-4h2v-2z" fill="#143445"/>
<path transform="translate(671,162)" d="m0 0h10l5 3 1 7-8 10-3 2h-6l-5-12 1-7z" fill="#24F3D1"/>
<path transform="translate(568,865)" d="m0 0h9l-1 4h-6v4h5v3h3l-1 4-5 1 2 3 8 3 2 2h-43l-2-2 7-2 9-3 9-2v2h2z" fill="#1299EE"/>
<path transform="translate(450,801)" d="m0 0h18v5h-13v5h11l1 5h-11v5h12l1 7h-19z" fill="#E7EFF0"/>
<path transform="translate(278,800)" d="m0 0 18 1v5h-13v5h11l1 5-10 1-1 4h11l1 1v5l-1 1-17-1z" fill="#E6EFF0"/>
<path transform="translate(436,862)" d="m0 0h2l1 9h2l2 3 4 1 1-9 5-1v11h7l-1 4-1 1h-10l1 7 18 1v1h-25l-5-3-1-2z" fill="#1BB9E6"/>
<path transform="translate(635,376)" d="m0 0 3 1 1 12v31l-2 14-6 19-8 18-7 7-10 13-3-1 2-2 2-7 3-1 1-4 7-4 4-8 3-5 1-8 4-6 5-26 1-2v-34z" fill="#188AB8"/>
<path transform="translate(241,299)" d="m0 0h2l2 6 5 1 2 4-1 8-4 5-7 1-7-5-1-8 5-10z" fill="#8A9399"/>
<path transform="translate(277,220)" d="m0 0h6l7 6-1 9-5 6h-2v2h-8l-3-5v-9l3-6z" fill="#57626A"/>
<path transform="translate(585,800)" d="m0 0 19 1v5h-14v5h12v5l-11 1-1 5h14v5h-19z" fill="#ECF3F5"/>
<path transform="translate(215,478)" d="m0 0h13l4 4v7l-3 3 1 4 3 5v3l-4-1-8-9-2-1v10h-4z" fill="#E6EEF0"/>
<path transform="translate(626,801)" d="m0 0h19v5h-14v5h10l3 1v4l-12 1-1 5h14v5h-19z" fill="#EFF6F7"/>
<path transform="translate(856,868)" d="m0 0h3v3l-4 1-1 3-3 3h-3v2l-15 9-9 7-3 3-6 4h-5l2-5 12-10h2l1-4 19-13 3 1-1 1 4-1z" fill="#16566E"/>
<path transform="translate(358,408)" d="m0 0 5 1-1 9-4-1-20 5-10 2-2 1h-6l-4-2v-5h6l7-3 14-2 7-3 7-1z" fill="#4D5055"/>
<path transform="translate(445,616)" d="m0 0h8l5 4 3 6v2h-2v3h-2l-3 6h-7l-6-3-1-2v-8l3-6z" fill="#515B60"/>
<path transform="translate(501,800)" d="m0 0h6l6 4-2 5-4-1h-8l-3 1v7l6 5 5-2 5 1v4l-6 4h-7l-8-7-2-4v-6l6-8z" fill="#E4ECEE"/>
<path transform="translate(418,295)" d="m0 0 2 1-11 12-12 13-6 8-2 4-4 4-7 12-3 7-2 10-3 8-3 17v28l1 13h-1l-2-11v-41l3-11 7-20 5-10 8-12 9-11 7-7 7-8z" fill="#243741"/>
<path transform="translate(829,580)" d="m0 0 1 2v3l2 1-1 9-3 4-1 5v9l-2 12-1 2-6-1-1-1v-8l3-13v-5l-3-5 3 1 1-2h2l2-6z" fill="#575E64"/>
<path transform="translate(723,176)" d="m0 0 3 1v3l2 1-1 5-1 2-1 13-1 223h-1z" fill="#686A71"/>
<path transform="translate(523,218)" d="m0 0h16l-1 2h-7l-4 1 1 3h-3l-2 4-8 7-5 5h-3l-2 5-5 5-6 9-1 2 1 5-9 2v-3h2v-6h2l2-6 5-7 7-6h3v-3l8-7 6-8z" fill="#4D5156"/>
<path transform="translate(792,259)" d="m0 0h5l4 1v3h-4v7h4l1 4h-6l-4-3v-5h-2l-2 9h-12v-14l1-1h12l2 1z" fill="#16607D"/>
<path transform="translate(829,257)" d="m0 0 9 1 3 6v4l-4 1 3 1-2 5h-13l-4-4-1-10 3-3z" fill="#165671"/>
<path transform="translate(573,515)" d="m0 0h4l-1 4-9 5-7 2-1 1-13 2-12 1h-21l-12 5-5 3 1-4 4-3 10-3 2-2 24-1 19-3h8l2-4z" fill="#1C9AC3"/>
<path transform="translate(259,120)" d="m0 0 3 1 1 2 4-2 10 2 1-3 3 7-6-1-14 1-12 4-10 8-7 8-4 11 1 8 1 6h2l-1 2-3-3-4-9-1-7h2l2-7 1-2h-2v-2l4-1 2-4h-2v-2h5l3-1v-2h2l1-6h7l1-3 5-1 4 1z" fill="#2D5465"/>
<path transform="translate(500,151)" d="m0 0h7l4 1h12v2l13 1 4 1v2l-23-2h-49l-23 3-13 3-3-1h2l1-3 23-5 4-1 1 3h2v-2l32-1z" fill="#19556E"/>
<path transform="translate(307,300)" d="m0 0h2l1 4-9 26-5 1-4-2 1-9 6-17h2l1-2z" fill="#43F6EB"/>
<path transform="translate(93,98)" d="m0 0h2l2 5 1 4-2 1 2 1v2l-4 2-1 2h-2l-1-2-3 2h-4v2l-3 2h-3v2l-4-2-1-2h2l1-4 2-1-1-2v-5l1-4h7l3 1h3l1-3 2 2z" fill="#2C2E33"/>
<path transform="translate(740,125)" d="m0 0h108v1l-97 1-12 2-8 7-5 9-1 4-1 22-3 1v-26l4-9 7-8z" fill="#C7D7DB"/>
<path transform="translate(253,674)" d="m0 0h22l1 5 1 52v37l-1 2h-23v-1h21l-1-70v-23l-20-1z" fill="#95A8AE"/>
<path transform="translate(242,516)" d="m0 0h7l5 5v10l-5 4h-10l-3-4v-8z" fill="#595F65"/>
<path transform="translate(810,323)" d="m0 0h6v2l3 1 1 3-6 3 1 8-1 1h-6l-1-9-11-1 2 5 6 1 1 3-8 3-1 2h-2l-1-3v-16l1-1 9 1v2h2l1 2 3-6z" fill="#325A6A"/>
<path transform="translate(637,274)" d="m0 0 6 1 5 2 1 3-1 4 5 2v2h2v5l-12 16 1-6 3-5 1-4-6 4-5 6-1-2 1-3h2v-2h-2l2-7 6-7 1-4h-10l-3 1v2l-5 4-1-3 3-3h2v-3z" fill="#194A5D"/>
<path transform="translate(208,415)" d="m0 0 68 1h4l7-1-1 9-3 16-1 9h-1v-19l-3-1-2-3-2 2-1-2v-9l-81 1 4-2z" fill="#1AA0CA"/>
<path transform="translate(824,319)" d="m0 0h4v7l4 2-3 3v5l5 1 2-5v-5l16-1 2 3v4h-9l-2-1v-4l-2 1-1 3h2l2 4 8 1 1 4-1 1-9-1-2-2-5-1v2h-9l-3-3-1-10 1-5z" fill="#666B71"/>
<path transform="translate(241,217)" d="m0 0h17l-1 5h-12v7l3-1h8v6h-11l-1 6h13v4h-16z" fill="#99AAB0"/>
<path transform="translate(235,436)" d="m0 0h18l-1 5h-12v6h10v4h-11v7h13v4h-17z" fill="#E9F1F2"/>
<path transform="translate(622,327)" d="m0 0 2 1-4 5 2 6 6 5 5 10 1 14-2-2-5-11-8-5-4-2-3-3-1-8z" fill="#165D78"/>
<path transform="translate(168,251)" d="m0 0 1 3v30l3 16 5 14 8 12 7 8 12 9 13 9 11 6-4 1-8-4-14-10-4-2v-2l-5-2v-2h-2v-2l-4-2v-2h-2l-7-10-6-10-3-8-2-10-1-15v-18l1-8z" fill="#165770"/>
<path transform="translate(720,967)" d="m0 0 2 1-3 5-5 4-16 10-12 6-3-1 1-4 8-7 6-3 11-7z" fill="#164658"/>
<path transform="translate(291,440)" d="m0 0 4 1 5 13 5 20-1 3-3-8-4-11v-2h-4l1 15 3 15 8 20 1 3h-2l-7-13-6-25-2-14v-8z" fill="#164A60"/>
<path transform="translate(825,561)" d="m0 0 5 10h3l-1 5-9 17h-2l-1 3-5-5-1-5 9-16z" fill="#879095"/>
<path transform="translate(238,217)" d="m0 0h3v27l-2-2h-7l-3 1v6h-1v-10l2-10 2-3h-2l-1 4-2-1 6-10h4z" fill="#4D5055"/>
<path transform="translate(240,478)" d="m0 0h17l-1 5h-12v6h12v4h-12v6h12v4h-16z" fill="#E2EBED"/>
<path transform="translate(311,503)" d="m0 0h2l1 2 3 1 4 8 7 8 3 9-2 2-1 2-4-2-9-12-6-11 1-6z" fill="#20D5F1"/>
<path transform="translate(732,179)" d="m0 0 5 1v2l3-1 1 3h3v2l5 2v2l4-1-1 8v14l4 2h-6l-4-5-1-2-2 2-2-3 1-8v-7h-2l-3-6h-3v-3h-2z" fill="#3E464B"/>
<path transform="translate(698,800)" d="m0 0h21v7h-8v20h-5v-20h-8z" fill="#E7EFF0"/>
<path transform="translate(182,302)" d="m0 0 1 2h2l4 8 4 6v2h3l3 5 9 7 5 5 7 5 3 1v2l9 3 10 3h3l1-2 8 4 2 2v7l-4 1h-16l-1-2h18v-5l-1-1-15-2-15-6-16-12-11-10-6-8-5-8-2-4z" fill="#164D63"/>
<path transform="translate(391,800)" d="m0 0h2l-1 7h-8l1 4v17l-6-1v-16l1-4h-9v-6z" fill="#E8F0F2"/>
<path transform="translate(172,217)" d="m0 0h6v23l2-1h11l1 5-1 1h-17l-2-1z" fill="#F0F7F8"/>
<path transform="translate(641,611)" d="m0 0 4 1-2 4-4 4h-2l1 3-9 9-8 6-5 1 1-5 7-9 10-11 2-2-1 4h1z" fill="#26E9F6"/>
<path transform="translate(383,504)" d="m0 0 1 2-1 3 3 4 6 1-4 4-14 9-9 3-1-3 1-3 6-5 5-8 5-5z" fill="#1BB7E5"/>
<path transform="translate(335,311)" d="m0 0 1 3-5 11-5 13-6 20-2 9-3 31-1 26-2-2v-31l3-22 3-13 4-15 6-16z" fill="#CFDCDF"/>
<path transform="translate(306,484)" d="m0 0 2 4 4 10 3 6-1 2-1-3-3 3 1 6 7 12 9 11-1 2-9-10-9-14-8-16-2-8 4-1 3 1z" fill="#21DCF4"/>
<path transform="translate(721,174)" d="m0 0 2 2-1 187h-1l-1-188z" fill="#EFF6F7"/>
<path transform="translate(621,552)" d="m0 0h2v2l-10 8-18 12-16 8-19 7-17 4h-4v-2l8-5 5-1 5 1 10-2 5-2 1-3 12-2 10-7 6-3 1-2 4-2h3v-2z" fill="#40F7EC"/>
<path transform="translate(204,435)" d="m0 0 5 1 6 13v3h2l2-6 5-10h4l-1 5-8 18-2 4h-2l-11-25z" fill="#E2EAEC"/>
<path transform="translate(528,852)" d="m0 0h54v1l-52 1 2 2v8l-5 1-2-1-6 1-5-3-1-4 4-4 4-1 7 1z" fill="#25EFFC"/>
<path transform="translate(802,949)" d="m0 0 2 1-9 7-9 6h-2v3l5-2 7-4 2 1-15 10-16 11-5 2 5-5 8-6-7 2-17 11-4-1 16-10 12-8 10-7 13-8z" fill="#164254"/>
<path transform="translate(443,849)" d="m0 0h131l8 1 2 3-24-1h-117z" fill="#174A5D"/>
<path transform="translate(732,515)" d="m0 0 5 1 1 5-2 3-4 1-2 4h-2v2l-4 3h-6l-11 9-5 5-2-1 17-17 6-7 5-5z" fill="#22E7D1"/>
<path transform="translate(174,515)" d="m0 0 6 1 5 5 1 5-4 6h-7l-7-5v-6l4-5z" fill="#51555A"/>
<path transform="translate(191,36)" d="m0 0 2 1v10l-1 4 2 1-1 4v3 3h-2l-1 2-1-1v-5l-3 1-1 2h2v2l-5 2h-3v-3l2-1-3-1v-2l5-2-2-2 1-6v-3l2-3h2l-1 6h2v-6z" fill="#2B2C31"/>
<path transform="translate(675,218)" d="m0 0h6l6 5-1 8-1 3-4 2-6-1-4-4v-8z" fill="#55F5E8"/>
<path transform="translate(904,140)" d="m0 0 5 1 3 2 1 3v7l-3 4-7 1-5-5-1-8 5-4z" fill="#25EBF9"/>
<path transform="translate(416,491)" d="m0 0h2l1 3 2 1v3h2l1 3-1 5 7 11 7 6-1 3v-2l-4-2-10-9-4-4-8-7-4-3z" fill="#1579AA"/>
<path transform="translate(229,417)" d="m0 0h44v13l-1 17v34l3 14 2 7-3-1-5-18v-48l2-16-42-1z" fill="#254B5B"/>
<path transform="translate(350,148)" d="m0 0h1l1 17-5 13-5 7-9 6-9 5h-4v-2l-2 1h-7v-1l14-4 10-6 8-9 4-7z" fill="#18546B"/>
<path transform="translate(775,141)" d="m0 0 7 1 4 4v5l-4 6-1 1h-6l-5-5-1-5z" fill="#E7EFF1"/>
<path transform="translate(919,831)" d="m0 0m-2 1 7 1-4 4-7 2v2l-6 4-7 3-6 5-6 1-2-1 2-4 10-7z" fill="#165E79"/>
<path transform="translate(351,562)" d="m0 0 10 5 2-5 6 4 8 7 3 2v6l-4 1-8-4-4-4-4-2-3-3-5-4z" fill="#1A93BE"/>
<path transform="translate(445,362)" d="m0 0v3l-7 7-9 11-6 7-7 10h-2l-2 4-8 8-7 8-3 2 1-4 3-3 7-8h2l1-4 4-5 10-14 10-10z" fill="#63F6EA"/>
<path transform="translate(667,160)" d="m0 0h17v2l4 2 1 7-1 2-2-1-1-7-4-2h-10l-4 2-1 7 4 10v2l7-2 5-5 2-1-3 9-2 4-2 1h-7l-3-3v-7l-4-8 1-9z" fill="#176887"/>
<path transform="translate(223,246)" d="m0 0 1 3h2v5l-7 10-3 3-4 7-3 3-2-1 2-11 2-4h2l1-4 4-8z" fill="#EBF2F4"/>
<path transform="translate(335,801)" d="m0 0h5v20h12v6h-17z" fill="#F1F7F8"/>
<path transform="translate(292,170)" d="m0 0 2 2-6 5-1 4-8 7-5 4-8 4-8 1h-12l-7-4-5 1 1-5 4-1v2l5 2 4 2h8l11-4 12-7z" fill="#165973"/>
<path transform="translate(196,343)" d="m0 0h5l2 4 1 4h2l1 9-8 3-2-1-2 2-6-3 5-10 3-2 1-4z" fill="#505A5F"/>
<path transform="translate(12,109)" d="m0 0 2 1-1 2h-2l-1 3h-4v2h6v2l2 1v4h-2v9l-3 3v-2l-4 4h-2l1-6-3-1 2-8-1-2 3-1-3-2 1-4-1-3 7 1z" fill="#2C2D32"/>
<path transform="translate(746,141)" d="m0 0h5l5 6v7l-4 4-7-1-4-5v-6z" fill="#B4CBD1"/>
<path transform="translate(821,141)" d="m0 0h5l2 2v11l-1 3-7 1-5-3-2-10 4-1v-2z" fill="#4A5459"/>
<path transform="translate(805,392)" d="m0 0 10 1 11-1 1 17-5-1-1-12h-8v10l-1 1h-7l1-6h3l-1-2h-3z" fill="#696B71"/>
<path transform="translate(775,940)" d="m0 0 2 1v2l-15 9-7 6-7 2h-5l2-4 15-11 10-4z" fill="#165B74"/>
<path transform="translate(286,522)" d="m0 0 4 5 8 11 8 9 4 3h2l-1-6-2-3 1-3 8 12v3h2l3 5v3l-5 1-11-10-4-5-5-5-8-10-5-8z" fill="#16556D"/>
<path transform="translate(601,346)" d="m0 0h1l1 8 5 1 15 4 8 7 3 5-1 2-5-5v-2l-9-3-16-3-5-4-7 2 2-4z" fill="#1C9AC3"/>
<path transform="translate(773,326)" d="m0 0h15v15h-10l-3-3-1-10z" fill="#2D4651"/>
<path transform="translate(186,158)" d="m0 0h9l3 5-1 7-4 3-7-1-3-3-1-7z" fill="#282B31"/>
<path transform="translate(180,342)" d="m0 0h13l2 2-9 1-5 3-3 3-4 3h-4v2h-2l-1 4-5 8h-1l1-9 4-8 3-3h2v-2z" fill="#929EA4"/>
<path transform="translate(635,223)" d="m0 0 6 2 6 5 3 4-3 2-2 4-2 2-7-5-6-9 2-4z" fill="#1576A7"/>
<path transform="translate(875,141)" d="m0 0 6 1 3 3v8l-4 4-4 1-7-6v-6z" fill="#28ECF7"/>
<path transform="translate(531,806)" d="m0 0 6 2 3 4-1 6-5 4-6-1-4-5v-5l4-4z" fill="#2C2E33"/>
<path transform="translate(726,143)" d="m0 0 3 1-1 6 1 5 6 2h6v2l2 1 4 3v5l-3 3-8-1-3-5-2-6-4-3v-3l-3 1 1-9z" fill="#3B4449"/>
<path transform="translate(236,572)" d="m0 0 3 3 1 3v14l-3 10-7 11-10 8-10 3h-11l-5-2 3-1 15 1v-2l11-6 5-5 6-9 3-8v-11z" fill="#166B8D"/>
<path transform="translate(927,826)" d="m0 0 4 2v4l-5 3h-2v2l-15 8-9 5-4 1 4-4 10-5 3-1v-2l10-5-6-1-24 13-4 3-2-1 10-7 7-4 19-10z" fill="#165770"/>
<path transform="translate(618,474)" d="m0 0 1 2-8 12-12 14-8 8-9 7-5 3 2-6 10-9 3-4h3l2-4 5-5 5-3 6-8z" fill="#1881B2"/>
<path transform="translate(484,181)" d="m0 0h32l9 1 1 2h-42l-21 2-20 4-6-1 4-2 20-4z" fill="#3AF5F0"/>
<path transform="translate(904,885)" d="m0 0 7 1-5 6-13 6h-2v2l-11 4-4 1 2-1 1-4 5-4 10-5z" fill="#165B76"/>
<path transform="translate(615,371)" d="m0 0 7 1 2 5v3 5l-6 5h-2l-1 3-10 6-6 5-5 5-4 2 6-7 16-16 3-5 6-6 1-3-8-1z" fill="#1CC0EC"/>
<path transform="translate(168,578)" d="m0 0h1v12h2l1 2h2v2l5-5 3-10 1 3 2 1h-2l-1 5-1 4 1 1v6h-3l-1-3-2-1v6l-1 1 4 2 3 8 1 2-4-2-5-5-5-10-1-4z" fill="#41F7EB"/>
<path transform="translate(724 1e3)" d="m0 0 2 1-5 4h-3l-1 4h-4v2l-16 3-2 2h-9v-2l10-5 6-2 13-4z" fill="#194657"/>
<path transform="translate(551,189)" d="m0 0 5 1 8 2v6l-2 3-8-1-21-5-12-1-2-2 22 1 1 1h9l1-2z" fill="#1ECBEA"/>
<path transform="translate(733,807)" d="m0 0h7l4 4v6l-5 5-5-1-5-5 1-7z" fill="#2C2E33"/>
<path transform="translate(200,34)" d="m0 0 1 2-1 5 3 1-3 1v2h-3 4 5l-2 6-5 1v5h-2l1 4h-3l-1 2 1-4 2-6-2-1-1 2-2-2h-1v-6l1-3 1-4 4-4z" fill="#414348"/>
<path transform="translate(848,141)" d="m0 0 5 1 4 4v6l-4 5-4 1-5-5-2-5z" fill="#29ECF6"/>
<path transform="translate(380,676)" d="m0 0 1 3-11 27-12 29-8 19-3 6-1-4 8-20 7-15 12-30 4-11z" fill="#8C9AA0"/>
<path transform="translate(493,625)" d="m0 0h9v1l-6 1 2 5h78v1l-8 1h-72l-9-1-3-2 1-5z" fill="#1B92BB"/>
<path transform="translate(186,318)" d="m0 0 7 6 4 5 10 8 7 6v2l-5-1-9-5-9-8-3-5-4-4z" fill="#25EFFB"/>
<path transform="translate(774,972)" d="m0 0 3 1-14 10-3 3-7 5-7 3-4 2-2-1 2-4 10-7 16-10z" fill="#165A73"/>
<path transform="translate(61,30)" d="m0 0 2 2v6l-2 3-8 1-6 4v-2h-2v-2l-6 1 2 2-5 2-1 2h-3l-1-5 6 1 1-5 12-2 4-5 5-2v2h2z" fill="#50565B"/>
<path transform="translate(589,407)" d="m0 0 2 1-12 13-7 8-7 7-7 8-11 12-7 8-5 2 1-3h2l2-4 15-15 6-8h2l2-4 18-18z" fill="#94EFEC"/>
<path transform="translate(856,868)" d="m0 0h3v3l-4 1-1 3-3 3h-3v2l-6 4-7 2-5 2 2-5 7-6 5-5 5-1-1 2 4-1z" fill="#166182"/>
<path transform="translate(169,435)" d="m0 0 5 1v22h13v4h-17z" fill="#F1F8F9"/>
<path transform="translate(688,275)" d="m0 0 5 5 5 7 2 5-1 5-5-1-4-2-7-8-3-4 1-2 6 4 4-1-2-4z" fill="#1B96C0"/>
<path transform="translate(770,939)" d="m0 0 2 1-4 3-9 4-14 10-2 3 8-1-5 4-11 5h-6l2-4 7-5 4-4 19-12z" fill="#164355"/>
<path transform="translate(685,800)" d="m0 0h5l1 1v26h-6z" fill="#DFE8EA"/>
<path transform="translate(872,449)" d="m0 0h14l-1 7-6 9v2l6 3v2h-8l-3-3v-7l6-7 1-3h-9z" fill="#D2DCDF"/>
<path transform="translate(515,866)" d="m0 0h4v7l2-1 1-5 5 1 3 4 2-5h2l-1 8-2 5-4-1-4-2-1 1h-5l-2-7z" fill="#20333E"/>
<path transform="translate(890,448)" d="m0 0h8l1 3h2l1 7-4 6h-2v5l5 2v1h-11v-7l5-7v-5l-5-3z" fill="#DAE2E5"/>
<path transform="translate(635,376)" d="m0 0 3 1 1 12v31l-2 14-4 12-1-4 2-17 2-8v-34z" fill="#2289B6"/>
<path transform="translate(195)" d="m0 0h15v2h-2l-1 6h-2l-1-2h-4l3 3v2h-2l-1 2-1-2-5 4-6 1 4-4 5-1-1-2-3 2-4-1 4-9z" fill="#2C2D32"/>
<path transform="translate(766,350)" d="m0 0h4l-1 4-3 8 1 9 3 5v4l-4-1-4-5-2-6v-7l4-9z" fill="#E4EDEF"/>
<path transform="translate(399,801)" d="m0 0h6v26h-5l-1-6z" fill="#EDF4F6"/>
<path transform="translate(39,42)" d="m0 0h6v2l3 1 5-1v2l-3 3h5v2l-7 2-1-2-6 2h-1l-4 2h-3v-3h2l-1-6 4-1z" fill="#4F565B"/>
<path transform="translate(667,157)" d="m0 0 9 1v1l-8 1-3 1-1 11 2 7v9l-2-1-1-8-4-5-4-1 1-7 5-6h3v-2z" fill="#38464D"/>
<path transform="translate(882,896)" d="m0 0 2 1-19 12-11 6-4 4h-4v2l-7 5-1 2-7 3-13 11-4-1 13-10 10-7 8-6 7-4 9-6z" fill="#153E50"/>
<path transform="translate(457,862)" d="m0 0h7v13l-1 2-10-1v-10h2v-3z" fill="#27EFFA"/>
<path transform="translate(659,807)" d="m0 0h7l5 5v5l-5 4h-7z" fill="#27292F"/>
<path transform="translate(768,282)" d="m0 0h3l-1 5-2 4v12l3 6-1 4-4-2-4-8v-12z" fill="#E5EDEF"/>
<path transform="translate(532,157)" d="m0 0 9 1 3 1v2l5 2 12 7 2 3v3l-12-2-15-4v-1h14l-2-2-1-4-5-2-10-3z" fill="#198CB7"/>
<path transform="translate(445,616)" d="m0 0h8l5 4v2l-6-1v2l-4 2-1 3-5 5-2-1v-8l3-6z" fill="#71737A"/>
<path transform="translate(176,576)" d="m0 0h5l2 3-3 10-4 5h-2v-2l-3 1-1-8 1-3 3-1z" fill="#25EFFC"/>
<path transform="translate(766,447)" d="m0 0 4 1-4 10v9l3 6-1 3h-3l-5-10v-9l4-8z" fill="#E0E9EB"/>
<path transform="translate(751,350)" d="m0 0 4 1-2 5-2 3v11l2 4 2 1v3h-5l-3-3-2-6v-8l3-7z" fill="#E5EDEF"/>
<path transform="translate(319,145)" d="m0 0h9l4 5 1 2v9l-6 9-11 8-3 1 2-4 6-5 1-2h2l4-8h2l-1-8-2-4-10-1z" fill="#16536C"/>
<path transform="translate(559,807)" d="m0 0h7l4 3v8l-4 3h-7z" fill="#26272C"/>
<path transform="translate(806,451)" d="m0 0h8v2l-5 2 5 3v2h2v9l-1 2h-12l1-4 9-1-6-7-3-2v-5z" fill="#CAD4D8"/>
<path transform="translate(807,418)" d="m0 0h6l4 5 1 2v11l-6 8h-4l1-5 3-5v-9l-2-5-3-1z" fill="#DDE6E8"/>
<path transform="translate(199,217)" d="m0 0h5v28h-5z" fill="#EEF5F6"/>
<path transform="translate(783,284)" d="m0 0h4l-2 5-2 3v9l5 7v4l-4-1-7-9v-7l2-7z" fill="#E5EDEF"/>
<path transform="translate(266,403)" d="m0 0 10 2-2 2h-63v-1l15-2h38z" fill="#17546F"/>
<path transform="translate(794,284)" d="m0 0h6l1 4-1 20-4 3-5 1 2-4 1-1 2-21h-2z" fill="#CCD6D9"/>
<path transform="translate(750,417)" d="m0 0h4l-1 5-3 5v8l4 6v3l-5-1-4-6-1-8 4-10z" fill="#E3EBED"/>
<path transform="translate(520,238)" d="m0 0h2l1 3-4 5-6 5-5 6-3 9h-6v-6l5-4 4-6 7-6z" fill="#3B4449"/>
<path transform="translate(865,227)" d="m0 0h6l3 3-1 4-7 2 5 2-1 4h-6l-4-6 1-6z" fill="#31BCB2"/>
<path transform="translate(779,193)" d="m0 0h7l1 6h-8l2 7 4 2-1 3h-7l-3-5v-9z" fill="#89969D"/>
<path transform="translate(742,946)" d="m0 0h2v2l-7 6-13 8-6 1 1-4 17-12z" fill="#164354"/>
<path transform="translate(866,449)" d="m0 0h4l-1 4-4 6 1 5 3 3v3h-8l-3-8v-5l5-5h2z" fill="#CFDADD"/>
<path transform="translate(792,418)" d="m0 0 5 1 5 6v9l-4 7-2 2h-4l1-5 3-4v-8l-4-5z" fill="#DCE4E6"/>
<path transform="translate(0)" d="m0 0h7v10l3 4h-3l-2 5-3 1v3h-2z" fill="#4E5358"/>
<path transform="translate(709,614)" d="m0 0 5 1v2h-3l1 3v6l2 3-4 4-4 1-2-2v-11l4-6z" fill="#46F9E9"/>
<path transform="translate(829,260)" d="m0 0h9l3 4v4h-6v-6l-3 1-1 4 2 1-5 2v2h6l-1 2h-7l-3-2v-11l4 1v5z" fill="#3BEEF7"/>
<path transform="translate(370,436)" d="m0 0 2 2 2 11h3l1 9 2 7 6 5 3 5 1 3-3 3-3-5-1-3h-2l-5-9-6-22z" fill="#1A92BD"/>
<path transform="translate(484,295)" d="m0 0h11l2 1v4h-20l-11 1-12 5-3-1 8-5 12-3z" fill="#129DFA"/>
<path transform="translate(791,351)" d="m0 0h4l5 10v7l-4 8-2 3h-4l1-5 3-5v-9l-3-6z" fill="#D8E2E4"/>
<path transform="translate(242,218)" d="m0 0h15l-1 2h-12l1 13-2 7h14v4h-16z" fill="#E4EFF1"/>
<path transform="translate(487,582)" d="m0 0h29v1l-20 1-6 1-1 8 3 2-6-1-7-2v-3l5-6z" fill="#153F50"/>
<path transform="translate(753,283)" d="m0 0h3l-1 5-3 3v13l3 4v2l-6-2-2-1-1-3v-12l4-6z" fill="#90DBDB"/>
<path transform="translate(793,228)" d="m0 0h11l1 6-9-1 1 4 7-1-1 5-1 1h-7l-4-5 1-8z" fill="#38F4E8"/>
<path transform="translate(544,160)" d="m0 0 5 1 18 10 2 6v3l-4 1-9-3-7-3-2-2 8 1 8 2-3-6-11-6z" fill="#475055"/>
<path transform="translate(751,251)" d="m0 0h3l-1 4-2 3v13l3 6-1 3-4-2-4-8v-9l4-8z" fill="#C1DCDF"/>
<path transform="translate(751,448)" d="m0 0 4 1-5 10v7l4 8v3l-4-1-5-10v-9z" fill="#E2EBED"/>
<path transform="translate(889,317)" d="m0 0 5 1 5 8v9l-6 10h-3v-5l4-6v-7l-5-8z" fill="#D5DFE2"/>
<path transform="translate(862,253)" d="m0 0h7l3 9v9l-5 7h-3l1-5 1-4v-8l-4-6z" fill="#CFDCDF"/>
<path transform="translate(646,234)" d="m0 0h5l3 4-1 2 3 1 1 7h-3l-4 1-6-6v-5z" fill="#1CBBE7"/>
<path transform="translate(300,528)" d="m0 0 7 7v3h2l4 8-1 5-4-2-8-7-1-3h2l1-2v-3z" fill="#1A91BB"/>
<path transform="translate(849,394)" d="m0 0h8l2 2v3l-6 3-1 2h6v4h-8l-3-4v-8z" fill="#777D83"/>
<path transform="translate(378,378)" d="m0 0 1 2-3 8-3 21v14l2 11v8l-2-2-2-16v-29l4-14z" fill="#1C9AC3"/>
<path transform="translate(852,350)" d="m0 0 4 1 4 4 2 6v7l-7 11-3 1 1-5 4-8v-6l-6-10z" fill="#D8E1E4"/>
<path transform="translate(212,599)" d="m0 0 2 1h2v8l2 4-3 2-7 1-7-3 2-3 6-1 1-6-2-1z" fill="#26EEFB"/>
<path transform="translate(765,417)" d="m0 0h4l-1 4-2 4v10l3 5v2l-5-1-3-4-1-3v-9z" fill="#E0E9EB"/>
<path transform="translate(483,180)" d="m0 0h27v1l-40 2-19 3-22 5-3-1 6-3 18-4 10-1 3-1z" fill="#175B75"/>
<path transform="translate(580,517)" d="m0 0 3 1-4 4-21 11-12 4-14 4-14 1 4-2 19-4 17-6 12-6z" fill="#95B8BD"/>
<path transform="translate(820,226)" d="m0 0 8 1v2h2v-3h4v3l-5 3-1 6-4 1-5-1v-11z" fill="#307E84"/>
<path transform="translate(278,224)" d="m0 0h5l3 2 1 4-3 4-6 3-3-3-3 4v-6l3-5h2z" fill="#26ECFA"/>
<path transform="translate(644,565)" d="m0 0h2l-1 7-3 1h-3l-36 36v-3l23-23 7-8 7-7z" fill="#2DE5EC"/>
<path transform="translate(279,273)" d="m0 0 3 1-6 14-4 17-1 21h6v2l-7 1-1-2v-17l2-18 1-2h2v-6l4-6z" fill="#17627E"/>
<path transform="translate(216,252)" d="m0 0 1 2-4 7h-2l-3 9-5 12-1 4 7-4-2 5-3 2h-4l-1-3 1-4-1-5 2-1v-4l3-1 7-15 3-1z" fill="#52565C"/>
<path transform="translate(858,317)" d="m0 0 5 1 4 6v11l-5 9-4 1v-5l4-5v-11l-1-4-3-1z" fill="#99ADB3"/>
<path transform="translate(262,175)" d="m0 0m-2 1h2l-2 4-11 6 2 8-7-1-5-3 1-3 15-9z" fill="#8FE6E6"/>
<path transform="translate(779,450)" d="m0 0h5l2 3-5 4-1 7 4 6v2h-5l-4-7v-9z" fill="#D8E2E5"/>
<path transform="translate(775,424)" d="m0 0 12 1-1 6h-4v-3h-3v6h6l-1 5-1 1h-5l-2-7z" fill="#808A90"/>
<path transform="translate(495,270)" d="m0 0h17l7 3 2 2 2-1-1 3h-2l-2 4h-3l-1-3-10-5-10-1z" fill="#224C5C"/>
<path transform="translate(195,217)" d="m0 0h4v26l-4-1v-7h-2l-1-7 1-2h3l-2-4h2z" fill="#4F5358"/>
<path transform="translate(482,625)" d="m0 0h11v1l-8 1v4l2 1 9 1 62 1v1h-65l-11-2-2-3v-4z" fill="#154053"/>
<path transform="translate(807,194)" d="m0 0h6l1 1-1 7v3l-1 5-1 1h-5v-16z" fill="#798086"/>
<path transform="translate(498,864)" d="m0 0h4v4h-7v9h2l2-4 2 2v5h-11l1-13 1-2z" fill="#15516B"/>
<path transform="translate(823,418)" d="m0 0 5 1 5 8v8l-5 8-5 1v-3h2l2-4 1-7-2-7-3-3z" fill="#DDE6E9"/>
<path transform="translate(910,880)" d="m0 0h6l2 1-1 5-9 5-2-1 4-3-6-1-17 10-3-1 17-10z" fill="#153F51"/>
<path transform="translate(751,385)" d="m0 0 4 1v3l-5 5v8l3 6v2h-4l-1-4-3-1v-11z" fill="#CDD6D8"/>
<path transform="translate(868,351)" d="m0 0 5 2 5 6v7l-4 10-2 3h-4l1-5 3-4 2-13-3-1v-2l-3-1z" fill="#D6E0E3"/>
<path transform="translate(225,265)" d="m0 0 5 3 4 10 3 5v6l-3-1-7-9-2-10z" fill="#A4BBC2"/>
<path transform="translate(752,189)" d="m0 0 1 4-1 4v14l4 2h-6l-4-5v-12l4-6z" fill="#E0E9EB"/>
<path transform="translate(314,374)" d="m0 0 3 2-2 22-1 26-2-2v-31z" fill="#9EAEB4"/>
<path transform="translate(752,219)" d="m0 0 3 1-4 7v9l6 4v2l-7 1-4-6-1-6 3-8z" fill="#2EE6DC"/>
<path transform="translate(467,217)" d="m0 0h12v1l-24 4-20 6-13 5h-2v-2l9-4 11-4 21-5z" fill="#DCE7EA"/>
<path transform="translate(244,158)" d="m0 0v3l-4 10-4 2-5-1v-8l5-2 4-3z" fill="#45F9EA"/>
<path transform="translate(500,151)" d="m0 0h7l4 1h12v2l13 1 4 1v2l-14-1-8-2-32-1v-2h10z" fill="#2C4651"/>
<path transform="translate(616,479)" d="m0 0h2l-1 4-7 10h-2l-1 4-10 10h-2l-2 4-9 7h-2v-2l11-9 9-9 11-14z" fill="#A0C9CD"/>
<path transform="translate(276,425)" d="m0 0 2 1 1 3 2 1v20h-1v-7l-3 1-1-3h-2v-13z" fill="#1FD6F3"/>
<path transform="translate(750,318)" d="m0 0h3l-1 5-2 5v6l1 4 5 1-2 4-4-1-4-5-1-2v-8z" fill="#23F0D4"/>
<path transform="translate(761,257)" d="m0 0h2v3h8l1 1v7l-3-1v-2l-6-1 1 9 4-3h2l-1 5h-8z" fill="#27E8F7"/>
<path transform="translate(845,251)" d="m0 0 5 2 5 7-1 10-6 10h-4l1-4 4-7 1-2v-7l-3-5z" fill="#D5DFE2"/>
<path transform="translate(207,216)" d="m0 0 4 1 6 8 3 5v2l3 1-1 3-4-1 2 4v3l-2-1-3-8-4-8-3-2z" fill="#555B60"/>
<path transform="translate(874,317)" d="m0 0 5 1 5 10-1 6-6 9-4 1 2-5 3-5v-9l-4-6z" fill="#9DDCDE"/>
<path transform="translate(764,218)" d="m0 0h2l1 21 4 1-2 3-4-1-3-3-1-7 1-13z" fill="#23EDE8"/>
<path transform="translate(198,548)" d="m0 0h11l10 2 3 1v2l4 1 3 3 1 6h2l-1 3-10-11-10-4h-15l-6 1v-2z" fill="#265A6E"/>
<path transform="translate(779,352)" d="m0 0h4v20l-3 6h-4l2-5v-20z" fill="#D3DEE1"/>
<path transform="translate(807,350)" d="m0 0 4 1 3 4 1 4v7l-5 11h-4l1-5 3-6v-9l-3-4z" fill="#CCD6DA"/>
<path transform="translate(194,436)" d="m0 0h4v27h-4z" fill="#E5EFF1"/>
<path transform="translate(836,386)" d="m0 0h3l1 15v4l4 1v2l-5 1-4-2 1-10h-2l1-8z" fill="#6C6E75"/>
<path transform="translate(298,105)" d="m0 0 2 2 2-2 3 1-1 8-4 1v1l2 1-1 1-9 1-2 1 1-5 3-6 4-1z" fill="#373F44"/>
<path transform="translate(766,575)" d="m0 0h1v12l-8 16-2 1v-3l-2-2 2-6 2-3 1-7 2 3 3-3z" fill="#A4BEC5"/>
<path transform="translate(810,285)" d="m0 0h5l2 4-2 7-2 10-3 3h-3l2-10 2-5v-6z" fill="#DAE5E7"/>
<path transform="translate(824,886)" d="m0 0h2v2l-8 6-5 4-3 5h5l-5 4-4 3h-2l-1-4 3-6 12-10z" fill="#164456"/>
<path transform="translate(187,331)" d="m0 0 4 2 10 8 16 11 11 6-4 1-8-4-14-10-4-2v-2l-5-2v-2h-2v-2l-4-2z" fill="#16495F"/>
<path transform="translate(783,227)" d="m0 0h4v3l-6 3v5l4-1 3-1-2 5-1 1-7-1-3-2v-11h4v3z" fill="#5FD7D1"/>
<path transform="translate(177,217)" d="m0 0h1v23l2-1h11l1 5-1 1h-13l-1-4z" fill="#A7B8BE"/>
<path transform="translate(852,226)" d="m0 0h6l-1 5-5 1v10l-5-1v-14z" fill="#475E69"/>
<path transform="translate(196,550)" d="m0 0h13v1l-15 2-12 6-6 7-6 12h-1l1-8 6-9 8-7 7-3z" fill="#98DFDF"/>
<path transform="translate(296,521)" d="m0 0 3 3 4 10 1 2-3 3-4-1-4-8-1-5h2v-2h2z" fill="#1CBDE7"/>
<path transform="translate(203,478)" d="m0 0h3v26h-4v-25z" fill="#EEF5F6"/>
<path transform="translate(808,253)" d="m0 0h4v4h2l-1 16h5v1h-10z" fill="#27D0EE"/>
<path transform="translate(245,107)" d="m0 0h6l1 6-2 4-2-3h-3v5l-2 1-1-3-1-2-1 3-4-3v-2l-2-1h2v-2h2v2l4-4z" fill="#353C41"/>
<path transform="translate(522,849)" d="m0 0h52l8 1 2 3-51-2-11-1z" fill="#143F52"/>
<path transform="translate(761,386)" d="m0 0h4v18h4l-1 4h-6l-1-1z" fill="#81878C"/>
<path transform="translate(237,296)" d="m0 0 7 1 5 7v2l-4-1-2-3v-3l-6 2-2 7-2 3-1 5-3-4v-6l2-1 3-8z" fill="#585C62"/>
<path transform="translate(713,614)" d="m0 0 4 2 6 7-1 3v-2h-2v2h-3v2l-5-1-1-1v-9h3z" fill="#1EC8E9"/>
<path transform="translate(293,447)" d="m0 0 3 1 3 8v3h2l4 15-1 3-3-8-4-11v-2h-4v14h-1l-1-7v-14z" fill="#1984AC"/>
<path transform="translate(235,306)" d="m0 0 1 2 5-2 4 1 1 4-4 1h-2l-4 8-3-1-1-8z" fill="#A9C4CB"/>
<path transform="translate(801,952)" d="m0 0h6l-5 5-13 8-5 2-1-2 5-5z" fill="#175C76"/>
<path transform="translate(822,449)" d="m0 0 4 1 3 3v8l-2 5v6h-8l2-4 3-4v-10l-2-2z" fill="#C0CBCF"/>
<path transform="translate(677,442)" d="m0 0 9 3 1 1v6l-6 2h-5v-11z" fill="#24EDD5"/>
<path transform="translate(877,386)" d="m0 0 5 1 2 7v7l-4 11h-4l1-4 3-6v-7l-4-6z" fill="#7F858B"/>
<path transform="translate(841,351)" d="m0 0h3l-1 5-2 5v8l4 8h-4l-5-8v-7l4-10z" fill="#87959B"/>
<path transform="translate(622,327)" d="m0 0 2 1-4 5 2 6 6 5 5 10-1 3h-2l-4-10-11-9 3-7z" fill="#1D4B5C"/>
<path transform="translate(795,326)" d="m0 0 5 1v3l-3 1 1 5 6 1 1 3-8 3-1 2h-2l-1-3v-10z" fill="#25F3CC"/>
<path transform="translate(791,194)" d="m0 0h6l2 2v5h-5v6h7v3h-9l-1-2z" fill="#BAC7CB"/>
<path transform="translate(765,190)" d="m0 0h2v4h-2l1 11 1 5h3v2h-7l-2-3v-14l2-4z" fill="#D7E3E6"/>
<path transform="translate(350,148)" d="m0 0h1l1 17-5 13-4 1-7 7-2-1 7-7 6-10z" fill="#16536C"/>
<path transform="translate(863,394)" d="m0 0h7l1 5-3 2 2 4v3h-6l-2-2v-11z" fill="#7C8287"/>
<path transform="translate(796,256)" d="m0 0h2v2h6l2 1 2-2 1 5v8l-1 4h10v1h-11l-1-3 1-11-5 3h-2v6h-3v-7h4l-2-3-2 1v-2l-3-1z" fill="#185C77"/>
<path transform="translate(516,181)" d="m0 0h20l18 5 4 2v2l3 1-2 1-21-7-22-3z" fill="#175D79"/>
<path transform="translate(683,176)" d="m0 0v3l-2 6-2 4-2 1h-7l-3-3v-5h3v2l7-2 5-5z" fill="#175B75"/>
<path transform="translate(185,813)" d="m0 0h33l1 2-4 1h-29l-2-2z" fill="#7D868C"/>
<path transform="translate(829,580)" d="m0 0 1 2v3l2 1-1 9-3 4-1 5v9l-1 9h-1l-1-18v-5-3l2-2 1-5v-6z" fill="#4D5156"/>
<path transform="translate(382,501)" d="m0 0h4v2l4-1 4 11-2 1h-6l-4-6 2-6z" fill="#1FD5F3"/>
<path transform="translate(892,387)" d="m0 0 4 1 4 8v6l-6 10h-3l1-5 3-4v-6l-3-5z" fill="#7A8085"/>
<path transform="translate(541,162)" d="m0 0 6 1 2 4 3 2-2 1-18-1-6-1v-1l11-1v-3l4 1z" fill="#1BBBE8"/>
<path transform="translate(711,586)" d="m0 0 2 1-33 33v-3l8-8 8-10 5-5 2-1 1-3z" fill="#39F5F0"/>
<path transform="translate(181,413)" d="m0 0 2 1-1 4 3 1-1 3-9 6-4 2 1-7 7-9z" fill="#21DFF6"/>
<path transform="translate(563,280)" d="m0 0 1 2h3v2l4 2v2l4 2 16 13 2 3-5-2-8-6-4-2v-2l-5-2-3-5-5-3-1 2z" fill="#163546"/>
<path transform="translate(473,865)" d="m0 0 5 1 2 7 3-3 2-5h2l-1 7-5 8-3-2v-2h-2l-3-8z" fill="#1C3F50"/>
<path transform="translate(178,557)" d="m0 0 2 1-6 7-4 8-1 5v15l2 9h-2l-2-3-2-13 3-16 4-9h2z" fill="#165771"/>
<path transform="translate(675,218)" d="m0 0h6l6 5-1 8-1 3-4 2-3-1 4-1-1-2-2-1v-7l-2-3 4 1 2 1v-2l-9-1z" fill="#26EBF8"/>
<path transform="translate(809,225)" d="m0 0h4l2 12v5l-4 1-3-5v-12z" fill="#22ECCB"/>
<path transform="translate(416,491)" d="m0 0h2l1 3 2 1v3h2l1 3-1 5 5 8-1 2-6-8-1-8-5-2-6 1h-3z" fill="#1B99C2"/>
<path transform="translate(824,319)" d="m0 0h4v7l4 2-3 3v5l2 1v2l2 1h-6l-3-3-1-10 1-5z" fill="#446775"/>
<path transform="translate(242,516)" d="m0 0h5l-6 7v7l4 2 1 3h-7l-3-4v-8z" fill="#A7BBC1"/>
<path transform="translate(477,326)" d="m0 0v3l-8 10-7 7-7 8-7 6 1-5 14-14 6-5 7-9z" fill="#7AF2EB"/>
<path transform="translate(306,484)" d="m0 0 2 4 4 10-1 2-6-4-3 4-4-9v-2l4-1 3 1z" fill="#24EAF9"/>
<path transform="translate(171,247)" d="m0 0 7 1 1 4 1 35 3 12-2 3-3-14-1-33-1-4h-7v-2h2z" fill="#176380"/>
<path transform="translate(877,253)" d="m0 0h6l1 6v11l-2 6-4 1 1-5 1-1-1-12z" fill="#AAB9BE"/>
<path transform="translate(678,533)" d="m0 0 2 2 1 4-4 2v2l-5 1-1 2h-2l-3 3-1-3 2-1 1-5 7-5 2 1z" fill="#23EFD0"/>
<path transform="translate(879,219)" d="m0 0 4 1 4 5 1 8-6 12h-3l1-4 3-5v-10l-4-4z" fill="#51E4E9"/>
<path transform="translate(633,444)" d="m0 0h3l-1 6-5 11-2 5-9 14-2-2 7-11 8-19z" fill="#95BABF"/>
<path transform="translate(792,259)" d="m0 0h5l4 1v3h-4v7h4l1 4h-6l-2-2-3-11z" fill="#59AFCB"/>
<path transform="translate(927,826)" d="m0 0 4 2v4h-3l1-3-6 1-27 14-7 5-2-1 10-7 7-4 19-10z" fill="#153C4D"/>
<path transform="translate(449,196)" d="m0 0h4v2l-13 3-15 4-6 3h-7l2-2 21-7z" fill="#165B77"/>
<path transform="translate(185,159)" d="m0 0 2 2v8l7-1 1-3 2 3-1 3-3 2-7-1-3-3-1-7z" fill="#254251"/>
<path transform="translate(539,324)" d="m0 0h2l-2 6-12 23-7 14-2 1 3-9 8-16 6-10z" fill="#7DEDEF"/>
<path transform="translate(761,319)" d="m0 0h2l2 7 4 1v2h-3l1 11-5 1-1-2z" fill="#24E3C9"/>
<path transform="translate(448,306)" d="m0 0 3 1-11 6-22 16-2-1 11-10 4-2 4-4z" fill="#129DFA"/>
<path transform="translate(243,161)" d="m0 0 1 4v10l-5 4-5-1-2-5 7-2z" fill="#175D77"/>
<path transform="translate(734,559)" d="m0 0h1v5l-2 3h-2l-2 4-7 8-8 7h-1v-5l4-1 3-5 1-4 7-2 5-6z" fill="#36EBEA"/>
<path transform="translate(363,525)" d="m0 0h2l1 4 7-2-3 3-11 7-3 2-2-2v-3l5-4z" fill="#164A5F"/>
<path transform="translate(796,392)" d="m0 0 4 1 1 3-2 1h-6l2 11-5-1v-13z" fill="#7A8085"/>
<path transform="translate(449,865)" d="m0 0h4v11h7v3l-4 1h-7z" fill="#174C64"/>
<path transform="translate(909,449)" d="m0 0 4 1 2 3v7l-2 11-5 1 1-7 2-4v-6z" fill="#ADB9BE"/>
<path transform="translate(641,228)" d="m0 0 9 5-5 5-1 4-4-2-2-5v-3h2l-1-3z" fill="#1B98C2"/>
<path transform="translate(468,162)" d="m0 0 25 1v1l-17 1-1 1-18 2h-6l3-3 9-1z" fill="#44F8EB"/>
<path transform="translate(189,54)" d="m0 0h5l-1 2v3 3h-2l-1 2-1-1v-5l-3 1-1 2h2v2l-5 2h-3v-3l2-1-3-1v-2l6-2 3 1v-2z" fill="#4E5156"/>
<path transform="translate(495,508)" d="m0 0v3l-8 9-9 11-6 5v-4l15-16z" fill="#8BEAEB"/>
<path transform="translate(619,470)" d="m0 0 2 4-4 2-4 6-7 9-3-1 2-2 2-7 3-1 1-4 7-4z" fill="#1C9AC3"/>
<path transform="translate(641,241)" d="m0 0 4 2 9 8v2l4 2 14 15v2l-4-2v-2h-2v-2h-2l-7-8-9-9-3-2v-2l-4-2z" fill="#144156"/>
<path transform="translate(734,526)" d="m0 0h2l-2 4-31 31-2-1 20-20 9-10z" fill="#19465B"/>
<path transform="translate(315,547)" d="m0 0 3 3v3h2l3 5v3l-5 1-11-10 2-1 4 3h2z" fill="#1E4454"/>
<path transform="translate(181,410)" d="m0 0h7l-4 3-8 4-5 6-3 9h2l1 3h-2l-1 3v-2h-2l-1-10 3-4h2l2-4 7-6h2z" fill="#355F70"/>
<path transform="translate(819,812)" d="m0 0h19l-1 3h-30v-2z" fill="#7F878C"/>
<path transform="translate(787,227)" d="m0 0 3 3h2v9l-4-2-4 2-4-1v-5l4-3h3z" fill="#254959"/>
<path transform="translate(458,152)" d="m0 0 2 1v2l-7 2-13 3-11 2 2-1 1-3 23-5z" fill="#2D4E5C"/>
<path transform="translate(702,478)" d="m0 0 4 4 5 13v7h-1l-2-7-2-5-2 1-2 7h-1v-19z" fill="#16546B"/>
<path transform="translate(203,351)" d="m0 0h3l1 9-8 3-2-1-2 2-4-3 6-3h3v-2l5-2v-2z" fill="#4D5055"/>
<path transform="translate(846,326)" d="m0 0h6l2 3v4h-9l-2-1v-4l-7 1v-2z" fill="#4F5D64"/>
<path transform="translate(68,105)" d="m0 0 4 1-1 6 2 2-3 2-1-1-2 2-2-3v-3h-7v-2l4-2v2z" fill="#292A2F"/>
<path transform="translate(720,967)" d="m0 0 2 1-3 5-3 3h-2v-2l-12 4-4 1 3-3 8-5z" fill="#143445"/>
<path transform="translate(568,865)" d="m0 0h9l-1 4h-6v4h4v2h-4v2h6v2h-9z" fill="#15495F"/>
<path transform="translate(903,841)" d="m0 0h3l-1 4-8 5-3 3-6 1-2-2 10-7z" fill="#1578A9"/>
<path transform="translate(227,148)" d="m0 0 4 1-3 9 1 8 1 6h2l-1 2-3-3-4-9-1-7h2z" fill="#52626A"/>
<path transform="translate(286,230)" d="m0 0 1 3-6 8-6 1-3-2 2-7 5 3 6-4z" fill="#198FBC"/>
<path transform="translate(169,217)" d="m0 0h2v16l-2 7-3 1 1-6-1-3 1-2-2-2 3-7z" fill="#4C4F54"/>
<path transform="translate(824,912)" d="m0 0h3v3l-10 7-6 1 1-4 3-1v-2z" fill="#164456"/>
<path transform="translate(550,866)" d="m0 0h3l1 6 4 1 2 1v4l-8-1v3h-2z" fill="#24292F"/>
<path transform="translate(793,450)" d="m0 0h5l3 2-1 6-5 5h-4l1-5 5-2 1-2-8-1v-2z" fill="#D3DEE1"/>
<path transform="translate(316,432)" d="m0 0h1l4 22 6 20v3l-2-2-8-24-1-7z" fill="#70767C"/>
<path transform="translate(785,327)" d="m0 0h2v13l-2 1h-7l-3-3v-6l3-2 2 7 5 1z" fill="#63D2C6"/>
<path transform="translate(487,270)" d="m0 0h8l-3 3-17 2-4 2h-6l1-3 14-3z" fill="#164557"/>
<path transform="translate(746,141)" d="m0 0h5l1 5h-3l-1 3-5 3h-2v-6z" fill="#8D979C"/>
<path transform="translate(27,63)" d="m0 0h2v2l3-1 5 1v2h-8l-2 4 3 2-4 4h2l-1 3-2-1-4-5-2-1 2-2 4-2 2-4z" fill="#515B60"/>
<path transform="translate(119)" d="m0 0h16l-1 6-3 1-2-2-1 1h-5l-4-5z" fill="#515A5F"/>
<path transform="translate(420,589)" d="m0 0 2 2-14 15-7 6-1-2h2l2-5z" fill="#9FB5BC"/>
<path transform="translate(202,571)" d="m0 0 7 1 6 5 2 5v7l-2 4-2-1 1-7-2-9-5-2h-10l1-2z" fill="#155069"/>
<path transform="translate(623,215)" d="m0 0 7 2 1 2-8 4v5l-4-2-1-1v-5z" fill="#164355"/>
<path transform="translate(237,188)" d="m0 0h2v2l5 2 4 2h8l9-2-5 5h-14l-7-4-5 1 1-5z" fill="#165874"/>
<path transform="translate(176,60)" d="m0 0 1 4 2 1v3h-2v2h-2v2h-6l-3 3-3-1 4-2 2-6h2l1 3v-2l1-4z" fill="#4C4F54"/>
<path transform="translate(67,19)" d="m0 0h5l3 1v3h3l2 5v2h-2l-1 2-2-1-2 4-1-2 2-6-2-1-1-4h-5z" fill="#515B60"/>
<path transform="translate(496,583)" d="m0 0h12v1l-13 2-1 7 8 2v1h-7l-8-3 2-1 1-7z" fill="#198DB9"/>
<path transform="translate(810,325)" d="m0 0h5v2h2v3l-4 1 1 8-5 1v-14z" fill="#23F5CB"/>
<path transform="translate(795,252)" d="m0 0 5 3 1 3h-3v-2l-4 3h-2l-1 3-4-2-12-1 1-2h15l1-3h3z" fill="#1E4455"/>
<path transform="translate(218,235)" d="m0 0 3 1 3 3h3v12l-1-2h-2l-1-2h-3l-1-8z" fill="#818990"/>
<path transform="translate(807,224)" d="m0 0h6l-4 2-1 11h-3l-8 1-2-2 1-4 8 1v-5h2z" fill="#275D73"/>
<path transform="translate(860,533)" d="m0 0h7l3 3-12-1v2l-5 4v10l3 5 3 3-5-2-4-6v-9l4-6z" fill="#154356"/>
<path transform="translate(313,296)" d="m0 0 2 2-1 4-6 15h-2l-1 5-2 2 2-9 5-13z" fill="#16546D"/>
<path transform="translate(621,289)" d="m0 0 3 1-12 11-11 9-5 1 1-2 2 1 2-4 11-9 7-6h2z" fill="#154359"/>
<path transform="translate(223,111)" d="m0 0 4 2 1 5h-2l-1 6h-2v-3h-2v2l-2-1 1-3-4-2 5-1 1-4z" fill="#394247"/>
<path transform="translate(157,49)" d="m0 0h2l1 4-1 4-2 1v2l-6 2-1-3 2-8h5z" fill="#36373C"/>
<path transform="translate(842,920)" d="m0 0 4 1-7 5-1 2-7 3-13 11-4-1 13-10 10-7z" fill="#153F50"/>
<path transform="translate(488,872)" d="m0 0 2 2v8l-6 2-4-3 2-1 3-7z" fill="#20D7F3"/>
<path transform="translate(254,806)" d="m0 0h7l3 2-1 5-2 1h-6l-1-1z" fill="#2F3238"/>
<path transform="translate(256,114)" d="m0 0 6 1 2-1 2 3 2-1 1 5-7 3-1-3-2-1v6h-5l1-5h2v-2h6l-1-1h-3v-2l-3-1z" fill="#2C3035"/>
<path transform="translate(623,626)" d="m0 0 4 1-2 1 1 4v3l-7 4h-3l1-5z" fill="#21D5ED"/>
<path transform="translate(301,477)" d="m0 0h2l1 5h2v8l-4-1-2 2-2-10z" fill="#44F8EA"/>
<path transform="translate(178,343)" d="m0 0h6l-3 2-7 3-7 8-4 8h-1l1-8 6-8h2v-2z" fill="#DCE5E7"/>
<path transform="translate(777,260)" d="m0 0h11v3h-9v7l1 1h6l1 3h-8l-3-3v-10z" fill="#53EEF3"/>
<path transform="translate(400,170)" d="m0 0 4 1-20 8-10 5v-2l6-5 4-2 7-3z" fill="#294D5C"/>
<path transform="translate(219,482)" d="m0 0h7l2 4-3 4h-7v-7z" fill="#32353A"/>
<path transform="translate(329,162)" d="m0 0 2 1-2 5-8 7-8 4 2-4 6-5 5-5z" fill="#144054"/>
<path transform="translate(325,127)" d="m0 0h9l12 8 1 4h2l2 7-2 1-1-5h-2l-6-8-10-5-5-1z" fill="#1A4E62"/>
<path transform="translate(763,807)" d="m0 0h9l1 1v5l-1 1h-9z" fill="#2A2B30"/>
<path transform="translate(271,569)" d="m0 0v3l-1 2h-2l-2 5-4 8v12l4 9 1 4-4-4-3-8v-15l6-11z" fill="#33EBF7"/>
<path transform="translate(269,456)" d="m0 0h1l1 20 3 16 3 10-3-1-5-18z" fill="#164054"/>
<path transform="translate(823,393)" d="m0 0h3l1 16-5-1v-14z" fill="#6A6C72"/>
<path transform="translate(643,531)" d="m0 0 2 1-9 10-9 9-4 1 4-7 5-1 2-5 8-7z" fill="#3CF0E9"/>
<path transform="translate(247,516)" d="m0 0 4 2 3 3v10l-5 4-4-1v-2l4-2 1-2v-8l-4-3z" fill="#73777D"/>
<path transform="translate(696,284)" d="m0 0h2l6 12-1 5-6-1-5-3v-2l7 1-1-6z" fill="#15475C"/>
<path transform="translate(100,8)" d="m0 0 4 4 4 5v2l-5-1-1 3-1-2h-3v-2l1-1v-3l-5 4-2-1 4-4 4-1z" fill="#4D5156"/>
<path transform="translate(375,493)" d="m0 0 2 1-6 6v2l4 2-6 2-8-1 5-5z" fill="#3FEEE9"/>
<path transform="translate(272,163)" d="m0 0 2 1-7 8-7 5-13 6 1-3 4-1v-2l5-1 1-2 4-2 6-5h2z" fill="#1B4253"/>
<path transform="translate(865,227)" d="m0 0h6l3 3-1 4-1 1h-7v-2l7-1v-2l-7 2-5 2 2-5z" fill="#5ADCD6"/>
<path transform="translate(471,156)" d="m0 0h23l-1 2-13 1h-12l-9 1v-3z" fill="#48FAE9"/>
<path transform="translate(903,138)" d="m0 0h6l2 2v2l-7-1-6 4 1 8 4 5-4-1-4-6v-7l5-5z" fill="#143F53"/>
<path transform="translate(12,130)" d="m0 0 4 2 5-2 3 1-5 5h-5l1 1v3l-7 1-1 3h-1v-5l3-2v3h3l-1-7z" fill="#4E5156"/>
<path transform="translate(242,218)" d="m0 0h15l-1 2h-12l1 13-3 4z" fill="#F3F9FA"/>
<path transform="translate(461,183)" d="m0 0h6l-4 3-20 4-6-1 4-2z" fill="#3BF4EE"/>
<path transform="translate(820,143)" d="m0 0h5l-3 7h-2v2l2 1-4 2-3-4 1-5z" fill="#717279"/>
<path transform="translate(95,18)" d="m0 0 6 1 1 1 2-2 1 4h-3l-1 2-1-2-4 1zm-2 5 5 2v2l2 2-4-1-2-1v5l-3-2h-2v-2l3-1z" fill="#50565B"/>
<path transform="translate(286,415)" d="m0 0h1l-1 9-3 16-1 9h-1v-13l2-16z" fill="#188BB9"/>
<path transform="translate(279,129)" d="m0 0 2 3-5 4-2 4-14 9-2-1 8-6 5-5 6-5z" fill="#153E51"/>
<path transform="translate(359,813)" d="m0 0h8l1 1v5h-10l-1-5z" fill="#D9E1E4"/>
<path transform="translate(305,506)" d="m0 0 4 2 8 15 10 12-1 2-9-10-9-14z" fill="#24EAF9"/>
<path transform="translate(763,264)" d="m0 0 6 1 3 4-2 7h-9v-1h8l1-5-4 3h-2z" fill="#176C8E"/>
<path transform="translate(227,169)" d="m0 0 2 4 4 2 3 3 8-1 4-1-1 3-7 3-6-1-2-3-3-2-3-4z" fill="#3B4348"/>
<path transform="translate(60,110)" d="m0 0 5 1 1 5-4 4-1 3-1-5h-3l-1 3-1-3 3-1v-3h2l-1-3z" fill="#484A4F"/>
<path transform="translate(373,574)" d="m0 0h6l1 1v6l-4 1-8-4-1-3 6 1z" fill="#157BAE"/>
<path transform="translate(778,195)" d="m0 0 1 2-1 8 7 3-1 3h-7l-2-3v-10z" fill="#E0E9EB"/>
<path transform="translate(942,832)" d="m0 0h5v2h-3l-2 4-4 1-1 3h-5l2-4 5-4z" fill="#17495B"/>
<path transform="translate(322,533)" d="m0 0 5 4 7 9 12 12-2 2-9-10-5-5-4-5v-2l-4-2z" fill="#154358"/>
<path transform="translate(790,465)" d="m0 0 2 1 9 1 1 4h-14v-5z" fill="#D3DADC"/>
<path transform="translate(596,313)" d="m0 0m-1 2v3l-5 4-2 4-4 2-5 5-5 4 2-4 11-12z" fill="#1ECEF0"/>
<path transform="translate(746,262)" d="m0 0 2 2v4h2l4 9-1 3-4-2-3-5z" fill="#E5F1F2"/>
<path transform="translate(225,254)" d="m0 0 1 4 1 8-1 3v5l-2-1-3-9v-5z" fill="#7B858A"/>
<path transform="translate(675,216)" d="m0 0 9 1 4 5 1 8-3 3-1-2 1-8-5-4h-6l-4 4 1-5z" fill="#17546D"/>
<path transform="translate(244,160)" d="m0 0 4 1-1 7 1 6-4 4-5 1 4-4v-10z" fill="#153F51"/>
<path transform="translate(443,849)" d="m0 0h31v1l-23 2h-8z" fill="#143648"/>
<path transform="translate(621,552)" d="m0 0h2v2l-10 8-13 9-1-3 3-2 4-3h3v-2z" fill="#3BECE8"/>
<path transform="translate(636,278)" d="m0 0h7l3 2-3 1-1 5-3-1v-3l-2 1-2 3-2-6z" fill="#1ECFF1"/>
<path transform="translate(838,258)" d="m0 0 4 1 1 5 1 11h-6l2-5-4-1 5-1-3-7z" fill="#153B4C"/>
<path transform="translate(368,565)" d="m0 0 4 2 10 7v9l-5 1-3-1v-2h5v-6l-8-6z" fill="#15495E"/>
<path transform="translate(559,865)" d="m0 0h3v14h-4l2-1v-4l-6-2-1-6 5 5z" fill="#166282"/>
<path transform="translate(489,583)" d="m0 0h7l-4 2h-2l-1 8 3 2-6-1-3-1 1-5z" fill="#165B75"/>
<path transform="translate(483,524)" d="m0 0 1 3-3 2-1 3h-2l2 3 12 3v1h-8l-11-3 6-8z" fill="#1C92BC"/>
<path transform="translate(246,520)" d="m0 0 3 1v6l-3 4h-4l-1-5 3-4h2z" fill="#27282D"/>
<path transform="translate(775,424)" d="m0 0 12 1-1 6h-4v-3h-4l-1 4-2-5z" fill="#DAE5E8"/>
<path transform="translate(167,365)" d="m0 0h13l-1 4h-13l-3 1-2 2 1-5z" fill="#51595E"/>
<path transform="translate(803,904)" d="m0 0 1 3-1 4-9 5-3-3 7-5h2v-2z" fill="#3C454A"/>
<path transform="translate(734,512)" d="m0 0 5 2 2 4h-2v6h-2v-7l-5-1-5 4-4 4-1-2 4-4 1-2h2v-2z" fill="#385B6A"/>
<path transform="translate(600,495)" d="m0 0v3l-16 15v-3l8-8 3-1 2-4zm-19 17 2 2-5 6v-3l2-4z" fill="#188BB9"/>
<path transform="translate(635,376)" d="m0 0 3 1 1 12v12l-1 11h-1l-1-29z" fill="#1C9DC5"/>
<path transform="translate(287,225)" d="m0 0 3 1-1 9-5 6h-2v2h-8l-1-2h6l5-5 3-7z" fill="#335A6B"/>
<path transform="translate(199,217)" d="m0 0h5v28h-5l2-2v-5h1v-15l1-5-4 1z" fill="#98A9AF"/>
<path transform="translate(333,159)" d="m0 0 1 3-4 9h-2v2l-11 6-3 1v-2l11-7 6-8z" fill="#84EBEC"/>
<path transform="translate(603,615)" d="m0 0m-2 1h2l-1 4-10 7-11 4h-5l4-2 14-6 3-1v-2h2v-2h2z" fill="#36F3F1"/>
<path transform="translate(286,522)" d="m0 0 4 5 8 11 6 7-1 2-5-5-8-10-5-8z" fill="#154257"/>
<path transform="translate(601,499)" d="m0 0h2l-2 4-4 4h-2l-2 4-9 7h-2v-2l11-9z" fill="#C5DDE0"/>
<path transform="translate(243,353)" d="m0 0h11l2 2v7l-4 1h-16l-1-2h18v-5l-1-1-9-1z" fill="#165770"/>
<path transform="translate(637,274)" d="m0 0 6 1 5 2v3l-2-2-10-1-1 3h-2v2l-5 4-1-3 3-3h2v-3z" fill="#1C4355"/>
<path transform="translate(775,259)" d="m0 0h12v1l-10 1-1 10-1-2-4 3v-12z" fill="#165E7D"/>
<path transform="translate(171,217)" d="m0 0h1v27l2 1h-6l-1-4 2-3 1-5z" fill="#79848A"/>
<path transform="translate(450,183)" d="m0 0h4v2l-25 6-3-1 6-3 9-2z" fill="#15465C"/>
<path transform="translate(380,676)" d="m0 0 1 3-9 22-3 2 3-9 5-14z" fill="#9AAEB5"/>
<path transform="translate(404,497)" d="m0 0m-1 1 3 3-3 1-2 5-2 3h-5l2-4 3-5 3-1z" fill="#20D1EB"/>
<path transform="translate(413,400)" d="m0 0v3l-9 9-7 8-3 2 1-4 3-3 7-8z" fill="#78F3EB"/>
<path transform="translate(227,346)" d="m0 0 14 5h4l1-2 7 3v1h-16l-9-4z" fill="#214556"/>
<path transform="translate(296,305)" d="m0 0h2l-2 9-4 14-2-4 1-5 3-9z" fill="#164459"/>
<path transform="translate(672,272)" d="m0 0 5 5 9 11 4 5-5-1-7-9-6-8z" fill="#154154"/>
<path transform="translate(831,229)" d="m0 0h2l-1 5-3 7-3 1-6-1v-2l8-1-1-5z" fill="#5E676E"/>
<path transform="translate(680,158)" d="m0 0 7 1 5 4 1 5-1 5-3 1 1-8-1-3-5-2-16-1v-1z" fill="#1C4251"/>
<path transform="translate(41,39)" d="m0 0h7v7l-1-2h-2v-2l-6 1 2 2-5 2-1 2h-3l-1-5 6 1 1-5z" fill="#4C4F54"/>
<path transform="translate(770,939)" d="m0 0 2 1-4 3-9 4-11 8-3-1 5-4 13-8z" fill="#154051"/>
<path transform="translate(376,511)" d="m0 0 1 3-7 9-1 3 3-1 2 2-9 3-1-3 1-3 6-5z" fill="#1887B1"/>
<path transform="translate(661,506)" d="m0 0h3l-2 6-10 12-6 7v-3l3-5h2l2-5 5-5 3-5z" fill="#38EDEB"/>
<path transform="translate(762,260)" d="m0 0h9l1 1v7l-3-1v-2h-7z" fill="#37EDEC"/>
<path transform="translate(353,231)" d="m0 0 2 1-21 21-2-1 15-16z" fill="#30D7E1"/>
<path transform="translate(444,194)" d="m0 0h12l-2 2-15 3h-4l1-3z" fill="#41F7EC"/>
<path transform="translate(874,139)" d="m0 0 5 1-4 2-5 4v6l4 5-5-2-3-5 2-7z" fill="#154358"/>
<path transform="translate(230,137)" d="m0 0h7l1 3-7 8h-3v-2h-2v-2l4-1 2-4h-2z" fill="#495057"/>
<path transform="translate(562,865)" d="m0 0h1l1 9 2-6h1v12l-1 2h-2v-2l-4 1 1-2z" fill="#1BBAEB"/>
<path transform="translate(505,499)" d="m0 0 1 2-7 9-4 3-1 3-6 4 2-5z" fill="#1FCEF1"/>
<path transform="translate(382,473)" d="m0 0 5 5-1 5-12 12-1-3 12-12-3-4z" fill="#153E51"/>
<path transform="translate(746,233)" d="m0 0 4 1 5 5 2 1v2l-7 1-4-6z" fill="#5DE4E3"/>
<path transform="translate(440,223)" d="m0 0 3 1-1 2-10 3-10 4h-2v-2l9-4z" fill="#DAE3E5"/>
<path transform="translate(97,13)" d="m0 0 6 2-2 2-6 1 1 5-4 3h-2v-3l3-2-3-3 2-2 4-2z" fill="#515B60"/>
<path transform="translate(724 1e3)" d="m0 0 2 1-5 4h-3v2l-3 1-11-1 4-2 14-4z" fill="#143445"/>
<path transform="translate(535,866)" d="m0 0h3v8l-1 4-5 1 1-7z" fill="#43F4EA"/>
<path transform="translate(868,351)" d="m0 0 5 2 5 6v7l-2 6-1-3v-5h-1v-7l-3-1v-2l-3-1z" fill="#A5B3B8"/>
<path transform="translate(783,326)" d="m0 0h5v15l-3-1h2v-13h-2v11l-4 1-3-4v-5l3 3v4h3z" fill="#606B73"/>
<path transform="translate(793,228)" d="m0 0h11l1 6-7-1v-3l-4 2-3 2z" fill="#94E6E6"/>
<path transform="translate(900,142)" d="m0 0 2 1-2 2 1 4 2 5 6 2-2 2-6-1-3-4-1-8z" fill="#3EF2EC"/>
<path transform="translate(294,484)" d="m0 0h2l9 22 1 3h-2l-7-13z" fill="#14445B"/>
<path transform="translate(277,399)" d="m0 0 4 2 3 2v2h3l1 2v8h-1l-1-9h-10z" fill="#396A80"/>
<path transform="translate(608,374)" d="m0 0h14l-1 4-15 15v-3l13-13v-1l-11-1z" fill="#95EFED"/>
<path transform="translate(568,269)" d="m0 0 1 2-9 17-4 9h-1l1-7 9-16z" fill="#A0B7BE"/>
<path transform="translate(668,161)" d="m0 0h16l5 5-1 7-2-1-1-7-4-2h-10l-5 2z" fill="#1A91BD"/>
<path transform="translate(707,506)" d="m0 0 1 3-4 9-9 11-3 2 1-4 7-7 5-10z" fill="#2AEBF5"/>
<path transform="translate(373,360)" d="m0 0 1 3-6 16-1 5-2-4 3-11 4-7z" fill="#1C313C"/>
<path transform="translate(696,285)" d="m0 0 2 2 2 5-1 5-5-1-4-2 4-2 2-4z" fill="#1578AA"/>
<path transform="translate(279,273)" d="m0 0 3 1-6 14-3 9-2-1 1-6h2v-6l4-6z" fill="#214F62"/>
<path transform="translate(9,23)" d="m0 0 5 1v3l2-2v4l2 1-3 3h-2l-2-5-4 3-1-5 3-2z" fill="#4E5358"/>
<path transform="translate(123,7)" d="m0 0 1 2 5 1v2h-2l-2 5-2 4-4-3 3-4z" fill="#51595E"/>
<path transform="translate(114,10)" d="m0 0h5l2 5h-2l-1 3-5 1z" fill="#4F565B"/>
<path transform="translate(820,548)" d="m0 0 2 1 3 6 5 5-3 4-1-3h-2l-4-10z" fill="#DCE8EA"/>
<path transform="translate(314,418)" d="m0 0h1l2 26-2-1-2-12z" fill="#81898E"/>
<path transform="translate(314,374)" d="m0 0 3 2-2 22h-1l-1-7v-9z" fill="#9DABB1"/>
<path transform="translate(175,346)" d="m0 0 2 1-6 6-1 3h-2l-1 4-5 8h-1v-5l3-3 5-8z" fill="#98A7AD"/>
<path transform="translate(889,317)" d="m0 0 5 1 4 6v6l-1-3h-3l-5-8z" fill="#E0E9EB"/>
<path transform="translate(753,283)" d="m0 0h3l-1 5-5 6-3-1 1-5z" fill="#DFEAEC"/>
<path transform="translate(672,255)" d="m0 0 4 2 11 12 3 5-1 2-6-7v-2h-2l-9-11z" fill="#154459"/>
<path transform="translate(275,228)" d="m0 0 5 1 1 4-4 2-2-1-3 4v-6z" fill="#47F2F2"/>
<path transform="translate(498,864)" d="m0 0h4v4l-7 1-1 5h-2v-9z" fill="#174F68"/>
<path transform="translate(208,602)" d="m0 0h2l-1 6-6 2-2-1-1-4z" fill="#20D7F4"/>
<path transform="translate(482,441)" d="m0 0h5l-2 5-10 17-1-3 5-8 2-5z" fill="#24EAFA"/>
<path transform="translate(168,290)" d="m0 0 2 2 4 14 1 5-3-1-3-7-2-12z" fill="#17566D"/>
<path transform="translate(530,216)" d="m0 0 14 1 6 1v2h-11v-2h-14v-1z" fill="#666A70"/>
<path transform="translate(469,867)" d="m0 0 5 1-1 8-2 4h-2z" fill="#2AF0F9"/>
<path transform="translate(803,575)" d="m0 0h1v7l-7 18-2 4 1-8 5-13z" fill="#9CB0B7"/>
<path transform="translate(722,448)" d="m0 0h1l1 22 2 11-3-3-2-9z" fill="#73777D"/>
<path transform="translate(789,451)" d="m0 0 1 2h6l2 1-1 3-5 2-1 4 3 1h-2l-1 2h-2l1-9 1-2-2-1z" fill="#63696F"/>
<path transform="translate(777,393)" d="m0 0h5l4 4v2l-5 2h-3v-2h3v-3h-5l-1 2 1-4z" fill="#AFBCC0"/>
<path transform="translate(561,170)" d="m0 0h2l1 7-5 2-8-3-4-3 8 1 8 2z" fill="#184E64"/>
<path transform="translate(217,11)" d="m0 0 4 3-2 4-2-1v-2l-5 5-5 3-1-5 1 2 8-7h2z" fill="#4E5156"/>
<path transform="translate(108)" d="m0 0 4 1-1 7 2 1-2 3h-2v-7l1-2h-4v3l-8-1 3-4 2 2 5-1z" fill="#4E5156"/>
<path transform="translate(809,921)" d="m0 0 3 1-9 6-5 3h-2l1-4z" fill="#175D77"/>
<path transform="translate(240,583)" d="m0 0h1v11l-3 10-6 8-1-2 6-10 2-8z" fill="#153E4F"/>
<path transform="translate(177,415)" d="m0 0 2 1-6 7-1 6 2 1-2 2h-4v-5l5-8z" fill="#198EBB"/>
<path transform="translate(259,120)" d="m0 0 3 1 1 2 4-2 10 2 1-3 2 4-15 1-6 1-1-4z" fill="#4C5459"/>
<path transform="translate(696,1010)" d="m0 0 2 1-2 2 1 3-2 1h-9v-2z" fill="#153343"/>
<path transform="translate(354,736)" d="m0 0h1l-1 9-7 15-1-4z" fill="#8F9DA3"/>
<path transform="translate(195,574)" d="m0 0 2 1-4 9-1 8-2-1v-10l4-6z" fill="#165069"/>
<path transform="translate(775,399)" d="m0 0 3 4h7v4h-9l-2-3z" fill="#A2AEB3"/>
<path transform="translate(380,342)" d="m0 0v3l-5 11-4 10-1-3 5-14z" fill="#26272C"/>
<path transform="translate(189,335)" d="m0 0h2v2h2l3 3 2 1v2l-9-1-2-2z" fill="#363C41"/>
<path transform="translate(793,259)" d="m0 0 5 1h3v3h-4l-1 7-2-3z" fill="#55EEF4"/>
<path transform="translate(889,896)" d="m0 0 3 1-1 3-11 4-4 1 2-1v-2z" fill="#156F9B"/>
<path transform="translate(216,589)" d="m0 0h2l-1 5-3 5-6 3h-4v-2l8-4z" fill="#92EAE8"/>
<path transform="translate(196,550)" d="m0 0h13v1l-15 2-9 4-2-1 3-3z" fill="#96E5E4"/>
<path transform="translate(425,516)" d="m0 0 5 3 6 5-1 6-3-2-2-5-5-5z" fill="#184356"/>
<path transform="translate(209,348)" d="m0 0 5 2 14 8-4 1-8-4-7-5z" fill="#144054"/>
<path transform="translate(832,262)" d="m0 0h3v6l4 2-4 2-5-1 1-8z" fill="#16536A"/>
<path transform="translate(834,260)" d="m0 0 5 1 2 3v4h-6z" fill="#5FA7B8"/>
<path transform="translate(409,236)" d="m0 0 4 1-12 8-5 2 3-5z" fill="#DBE4E6"/>
<path transform="translate(245,234)" d="m0 0 3 1 1 1 5 1 3 3-5 1-8-1z" fill="#4F555B"/>
<path transform="translate(724,177)" d="m0 0h2v3l2 1-1 5-1 2-1 12h-1z" fill="#4F5459"/>
<path transform="translate(314,128)" d="m0 0h10v1l-7 1-9 5-3-1 4-4z" fill="#92E5E4"/>
<path transform="translate(21,46)" d="m0 0 3 1v5 3l-2-1-1 2v-2h-2l-1 4v-3l-4 1-1-2 7-3 1-1z" fill="#525C61"/>
<path transform="translate(760,765)" d="m0 0 2 4-7 1h-17l4-2 17-1z" fill="#8B999F"/>
<path transform="translate(597,569)" d="m0 0 2 2-8 5-10 5v-3l7-3z" fill="#3DF4ED"/>
<path transform="translate(178,557)" d="m0 0 2 1-6 7-6 11-1-3 5-12h2z" fill="#3F4B52"/>
<path transform="translate(632,436)" d="m0 0h1v12l-2 1-4 10-1-4 1-5 3-5z" fill="#1B9AC4"/>
<path transform="translate(386,220)" d="m0 0h2v2h-3l-2 4-2 2-4 1-4 4-3-1h2v-2z" fill="#17556F"/>
<path transform="translate(30,214)" d="m0 0h2v2h-2v3l3 1-2 4-2-2-4 2v-3h2l-1-5z" fill="#3C454A"/>
<path transform="translate(807,194)" d="m0 0h6l1 1-1 7v3l-1 4v-3h-3l1-7v-4z" fill="#62676D"/>
<path transform="translate(518,154)" d="m0 0h11l7 1 4 1v2l-14-1-8-2z" fill="#224E5E"/>
<path transform="translate(234)" d="m0 0h16l-4 1-2 4-2 2-1-3 1-3-9 3z" fill="#494C51"/>
<path transform="translate(859,863)" d="m0 0 2 1-7 6-3 4-4-1 2-4z" fill="#165168"/>
<path transform="translate(189,621)" d="m0 0 7 1 3 1h11l10-2-2 2-7 2h-13l-9-3z" fill="#164557"/>
<path transform="translate(714,532)" d="m0 0h3l-2 5-9 7-4 4-2-1 12-12z" fill="#20C5DE"/>
<path transform="translate(473,463)" d="m0 0 1 2-9 15-4 6-1-2 6-11z" fill="#27EFFA"/>
<path transform="translate(794,325)" d="m0 0 9 1v2h2l1 4-9-1 3-3-5-2-1 6h-1v-6z" fill="#4D656F"/>
<path transform="translate(307,300)" d="m0 0h2l-2 7h-2l-1 2h-2l-1-6 1-2z" fill="#25EFFC"/>
<path transform="translate(779,262)" d="m0 0h7v1h-6v2h3l1 3h-4v2h7l-1 2h-7l-1-2v-7z" fill="#1786B7"/>
<path transform="translate(330,217)" d="m0 0 2 1-18 18-2-1 10-10 6-7z" fill="#65ECE9"/>
<path transform="translate(426,202)" d="m0 0h7l-3 2-6 2-5 2h-7l2-2z" fill="#16536B"/>
<path transform="translate(273,189)" d="m0 0 3 2-10 5-5-1 4-4 6-1 2 1z" fill="#164E63"/>
<path transform="translate(345,171)" d="m0 0 3 1-1 6-4 1-7 7-2-1 7-7z" fill="#176683"/>
<path transform="translate(345,760)" d="m0 0 1 2-3 8h-12l-6-1v-1h17l1-4z" fill="#93A3A9"/>
<path transform="translate(543,760)" d="m0 0 1 2-3 8h-15l2-2 12-1z" fill="#8B99A0"/>
<path transform="translate(482,625)" d="m0 0h11v1l-8 1v4l2 2h-5l-2-3v-4z" fill="#47616D"/>
<path transform="translate(283,401)" d="m0 0 4 1 2 4v17h-2v-18h-3z" fill="#21414F"/>
<path transform="translate(897,398)" d="m0 0 2 2-1 5-4 7h-3l1-5 4-5z" fill="#8B979D"/>
<path transform="translate(240,224)" d="m0 0h1v20l-2-4-1-5v-9z" fill="#576065"/>
<path transform="translate(53,99)" d="m0 0h2l-2 4-2 1-2 4h-2v2l-11 2v-2l10-3 3-1 1-4z" fill="#26272C"/>
<path transform="translate(51,44)" d="m0 0h2v2l-3 3h5v2l-7 2-3-3v-3h4v-2z" fill="#51595E"/>
<path transform="translate(10,40)" d="m0 0h3v7l-4 3h-2l1-4h-2l2-4z" fill="#4F555A"/>
<path transform="translate(184,4)" d="m0 0 5 2-1 5-1 2-2-1-1-4-2 5h-2l1-5z" fill="#2C2D32"/>
<path transform="translate(736,960)" d="m0 0 2 1-2 4 5-1-4 3-2 1h-6l2-4z" fill="#143445"/>
<path transform="translate(523,876)" d="m0 0 4 2 2 5-5 2-2-4z" fill="#20D8F2"/>
<path transform="translate(539,867)" d="m0 0h3v13h-3z" fill="#212E37"/>
<path transform="translate(458,626)" d="m0 0h3v2h-2v3h-2l-3 6h-7l4-3h2l2-5z" fill="#4E5156"/>
<path transform="translate(380,469)" d="m0 0h2v2h3v2l4 2 1 3-3 3-3-5-1-3h-2z" fill="#167EAF"/>
<path transform="translate(837,364)" d="m0 0h2v5h2l4 8h-4l-4-7z" fill="#D3DFE3"/>
<path transform="translate(445,362)" d="m0 0v3l-7 7-5 6-1-4z" fill="#7BF2EB"/>
<path transform="translate(877,253)" d="m0 0h6l1 8h-2l-2 4-2-9z" fill="#879096"/>
<path transform="translate(884,229)" d="m0 0 2 3-1 7-3 6h-3l1-4 3-5z" fill="#7BD4D7"/>
<path transform="translate(764,974)" d="m0 0 2 1-4 4-11 7-4-1 16-10z" fill="#153E50"/>
<path transform="translate(725,955)" d="m0 0 1 2-1 2 2 1-5 3h-4l1-4z" fill="#143445"/>
<path transform="translate(851,394)" d="m0 0h6l2 2v3l-4 2h-4v-2l3-2-4-2z" fill="#939CA2"/>
<path transform="translate(877,386)" d="m0 0 5 1 1 6h-2l-1 2-4-6z" fill="#72777D"/>
<path transform="translate(214,338)" d="m0 0 9 5v2l4 1 1 3-6-2-8-6z" fill="#185067"/>
<path transform="translate(898,326)" d="m0 0h1v9l-2 2h-4l2-10z" fill="#9AD5D6"/>
<path transform="translate(519,192)" d="m0 0 22 1 1 3-21-2z" fill="#1BA2C7"/>
<path transform="translate(173,154)" d="m0 0 2 4-2 10h-3l-1-5 1-4h2z" fill="#4E5358"/>
<path transform="translate(316,147)" d="m0 0h11v1l-10 3-8 5 2-5h2z" fill="#164455"/>
<path transform="translate(550,866)" d="m0 0h3l1 5h-2v4l4 2h-4v3h-2z" fill="#16495E"/>
<path transform="translate(918,833)" d="m0 0h6l-4 4-8 3-1-2h2l1-3z" fill="#157BAF"/>
<path transform="translate(709,614)" d="m0 0 2 1-3 5-2 10-2 1v-10l4-6z" fill="#91DCDC"/>
<path transform="translate(580,517)" d="m0 0 3 1-4 4-9 5-3-1 12-8z" fill="#A5C6CA"/>
<path transform="translate(306,509)" d="m0 0 2 1 6 11 3 4-1 2-8-10-2-4z" fill="#15465C"/>
<path transform="translate(822,449)" d="m0 0 4 1 3 3v8h-1v-7h-2v8h-1l-1-8-2-2z" fill="#8E9CA2"/>
<path transform="translate(179,424)" d="m0 0h2l-2 4-5 5-1 2-3-1v-2l5-5z" fill="#1A576F"/>
<path transform="translate(782,353)" d="m0 0 1 3v16h-1l-1-8h-1v-10z" fill="#A5BEC5"/>
<path transform="translate(231,284)" d="m0 0 6 5 1-4 2 8-5-1v-2l-5-2z" fill="#585F64"/>
<path transform="translate(761,253)" d="m0 0 3 1v5l3 1h-4v-3h-2v17h-1v-20z" fill="#166F95"/>
<path transform="translate(532,228)" d="m0 0h2l-1 3-7 7-4-1 4-5h3v-2z" fill="#3C454A"/>
<path transform="translate(49,125)" d="m0 0 1 3-3 3v2l-4 1-2-1v-2h-2v-2l8-1z" fill="#4C4F54"/>
<path transform="translate(277,113)" d="m0 0 6 1v2h-3v5h2v3l-4-2-3-3z" fill="#27282D"/>
<path transform="translate(39,42)" d="m0 0h6l-1 6-3-1-6 2v-3l3-1z" fill="#515B60"/>
<path transform="translate(824,912)" d="m0 0h3v3l-5 4-2-1 1-2-6 1 4-3z" fill="#143445"/>
<path transform="translate(668,628)" d="m0 0 2 1-2 4-8 8-3 1v-2h2l2-4h2v-2h2l1-4z" fill="#33F3F4"/>
<path transform="translate(309,541)" d="m0 0 3 3 1 6h-4l-3-3h2z" fill="#157BAF"/>
<path transform="translate(628,463)" d="m0 0v3l-9 14-2-2 7-11z" fill="#96A8AE"/>
<path transform="translate(621,310)" d="m0 0 3 2 4 2-14 4 2-4z" fill="#1786B6"/>
<path transform="translate(808,253)" d="m0 0h4v4h-3l1 4v11l-2 2z" fill="#3DA1C0"/>
<path transform="translate(317,227)" d="m0 0 3 1-13 13-1-2 2-3h2l1-4 4-2z" fill="#1A5067"/>
<path transform="translate(196,179)" d="m0 0 2 1-2 3-3 1h-9l-2-4 11 1z" fill="#294959"/>
<path transform="translate(842,920)" d="m0 0 4 1-7 5-1 2-8 3v-2l11-8z" fill="#164354"/>
<path transform="translate(515,866)" d="m0 0h4v7l-1 4 4 1h-5l-2-7z" fill="#154A61"/>
<path transform="translate(568,865)" d="m0 0h9l-1 4h-8z" fill="#164B5F"/>
<path transform="translate(515,865)" d="m0 0h7l6 2-1 2-5-2v5l-3 1v-7z" fill="#1DB8DA"/>
<path transform="translate(913,840)" d="m0 0 3 1-13 8-7 2 4-4 10-5z" fill="#15465A"/>
<path transform="translate(902,840)" d="m0 0v3l-10 6-4 3-2-1 10-8z" fill="#175D77"/>
<path transform="translate(478,525)" d="m0 0h3l-2 5-7 6v-4z" fill="#95E0E2"/>
<path transform="translate(320,454)" d="m0 0 2 3 5 17v3l-2-2-6-17z" fill="#5C6268"/>
<path transform="translate(751,385)" d="m0 0 4 1v3l-5 4-3-1 2-5z" fill="#94A2A7"/>
<path transform="translate(387,333)" d="m0 0 1 3-10 16-1-3 9-15z" fill="#154152"/>
<path transform="translate(242,297)" d="m0 0h2l5 7v2l-4-1-2-3v-3l-6 2v-3z" fill="#666A70"/>
<path transform="translate(827,269)" d="m0 0h3v2l10-1-2 5h-9l4-2-5-1z" fill="#35758F"/>
<path transform="translate(790,266)" d="m0 0h2l1 5 7 3v1l-10-1-2 1z" fill="#1D3E4E"/>
<path transform="translate(155,258)" d="m0 0 1 2-1 7-2 1-2-1-1-5 3-3z" fill="#3A4348"/>
<path transform="translate(830,226)" d="m0 0h4v3l-5 3-4 1v-6h3v2h2z" fill="#4CA5A2"/>
<path transform="translate(277,222)" d="m0 0 6 1v1l-5 1-1 2h-2l-2 5-1 6h-1v-9l2-1 3-5z" fill="#92A5AB"/>
<path transform="translate(393,174)" d="m0 0 3 1-16 8-3 1v-2z" fill="#85E4E5"/>
<path transform="translate(184,143)" d="m0 0 2 1v2h7l2 2h-10l-6 3 1-7 2 2z" fill="#4E5358"/>
<path transform="translate(198,8)" d="m0 0 5 1v2h-2l-1 2-1-2-5 4-6 1 4-4 5-1z" fill="#26272C"/>
<path transform="translate(0)" d="m0 0h3l2 6-2 3h-2l-1 2z" fill="#525C61"/>
<path transform="translate(537,874)" d="m0 0h1v8l-1 1h-6l1-4h2l1-2 2 1z" fill="#21DDF6"/>
<path transform="translate(314,810)" d="m0 0h2l2 4-1 4-5-1 1-5z" fill="#393C42"/>
<path transform="translate(648,637)" d="m0 0 1 3v4h6l-1 2-7 1-2-1 1-6z" fill="#1A5268"/>
<path transform="translate(174,515)" d="m0 0 6 1 1 2-4 1-3-1-2 1-2 5h-2l1-4z" fill="#868F95"/>
<path transform="translate(286,420)" d="m0 0h1v10h-2v9h-2l1-12z" fill="#17556D"/>
<path transform="translate(825,327)" d="m0 0 3 1v9l5 2v1h-6l-2-3z" fill="#2AF2D7"/>
<path transform="translate(338,262)" d="m0 0 1 2-3 6-5 4-2-1z" fill="#165D7B"/>
<path transform="translate(789,265)" d="m0 0 2 1-3 9h-12l1-4 2 2 8 1v-6z" fill="#225A70"/>
<path transform="translate(776,257)" d="m0 0h14l1 3-16-1z" fill="#143849"/>
<path transform="translate(821,228)" d="m0 0h1l1 11-4-1v-8z" fill="#23F5CB"/>
<path transform="translate(674,175)" d="m0 0 5 1-1 4h-3v2h-2l-2-6z" fill="#25EFFC"/>
<path transform="translate(243,161)" d="m0 0 1 4-3 8-3 2h-6v-2l7-2z" fill="#1886B4"/>
<path transform="translate(241,164)" d="m0 0 1 3-3 5-7 1v-3l6-2 1-2h2z" fill="#25EFFC"/>
<path transform="translate(276,125)" d="m0 0 4 2-2 5-3 2-2-4 1-3h2z" fill="#43F5EF"/>
<path transform="translate(100,121)" d="m0 0 5 5h-5l1 1v3l-4 1-2-1z" fill="#2B2D32"/>
<path transform="translate(106,117)" d="m0 0 1 2h2v2l-5 2-2 2-1-3-3 2 1-4z" fill="#4E5156"/>
<path transform="translate(742,946)" d="m0 0h2v2l-4 4-2-1h-3l-5 1 5-4z" fill="#20414E"/>
<path transform="translate(824,886)" d="m0 0h2v2l-8 6-3 3-2-1 2-4z" fill="#154153"/>
<path transform="translate(379,502)" d="m0 0h5l-2 4-5 5 2-6h-6v-1z" fill="#176887"/>
<path transform="translate(779,428)" d="m0 0h3v3h4v6l-1-3h-6z" fill="#5B6166"/>
<path transform="translate(202,328)" d="m0 0 6 4 5 5v3l-9-7-2-2z" fill="#154054"/>
<path transform="translate(196,327)" d="m0 0 4 2 11 9-2 1-8-6-5-4z" fill="#3EEFE8"/>
<path transform="translate(182,302)" d="m0 0 1 2h2l4 8 3 4v2l-3-1-5-8-2-4z" fill="#15445A"/>
<path transform="translate(427,292)" d="m0 0 2 1-4 5h-2v2l-3 2-3-1 4-5z" fill="#164456"/>
<path transform="translate(216,252)" d="m0 0 1 2-4 7h-2l-2 5-2-1 4-9 3-1z" fill="#687176"/>
<path transform="translate(761,232)" d="m0 0 2 3 1 4 3-1 4 2-2 3-4-1-3-3z" fill="#53DFE7"/>
<path transform="translate(849,227)" d="m0 0h8l-1 3-4 1-1 2h-2l-1-5z" fill="#26F4D1"/>
<path transform="translate(562,192)" d="m0 0h2v6l-2 3-8-1 4-2h3z" fill="#1BA7D4"/>
<path transform="translate(237,188)" d="m0 0h2v2l4 2 1 3-5-2-5 1 1-5z" fill="#445159"/>
<path transform="translate(679,181)" d="m0 0 1 3-3 3-8-1 1-4v2l7-2z" fill="#198DBB"/>
<path transform="translate(188)" d="m0 0h7l-2 1-1 5-1 4-3 1-1-2h2v-4h2v-2l-3-1z" fill="#4E5156"/>
<path transform="translate(802,949)" d="m0 0 2 1-9 7-5 3-3-1 11-7z" fill="#153F50"/>
<path transform="translate(806,393)" d="m0 0 1 2h5v10h-2v-8l-4 1-1-4z" fill="#909A9F"/>
<path transform="translate(189,331)" d="m0 0 4 1 8 7v3l-12-10z" fill="#3AEBE8"/>
<path transform="translate(858,317)" d="m0 0 5 1 3 4v3l-4-1-1-4-3-1z" fill="#D3DFE2"/>
<path transform="translate(208,282)" d="m0 0v3l-4 4h-4l-1-3 1-3h2v3z" fill="#5F646A"/>
<path transform="translate(487,270)" d="m0 0h8l-3 3h-10l-2-2z" fill="#164254"/>
<path transform="translate(371,184)" d="m0 0 2 1-14 9v-3l7-5z" fill="#184457"/>
<path transform="translate(544,160)" d="m0 0 5 1 12 7-1 2-11-6z" fill="#164F65"/>
<path transform="translate(684,161)" d="m0 0 5 1 2 4-1 6-4 4-2-1 4-2v-7z" fill="#175A73"/>
<path transform="translate(726,143)" d="m0 0 3 1-1 6 1 2-5 2 1-9z" fill="#41494E"/>
<path transform="translate(927,826)" d="m0 0 4 2v4h-3l1-3-6 1-3 1 1-3z" fill="#153E4F"/>
<path transform="translate(239,309)" d="m0 0h5l-5 4-2 2h-4l1-4z" fill="#F3F9FA"/>
<path transform="translate(635,295)" d="m0 0 1 2-7 8-7 6 2-4 7-7z" fill="#16729A"/>
<path transform="translate(829,260)" d="m0 0h5v2l-2 1-1 4 2 1-4 1-1-5z" fill="#5BEFF4"/>
<path transform="translate(765,227)" d="m0 0h1l1 11-3 1-2-4 1-4z" fill="#20D6C3"/>
<path transform="translate(813,224)" d="m0 0 1 2h3l1 8h-3l-2-5z" fill="#194253"/>
<path transform="translate(410,208)" d="m0 0 2 1-5 2v2l-4 1-4 2-4-1z" fill="#165A77"/>
<path transform="translate(189,54)" d="m0 0h5l-1 2v3 3h-2l-1 2-1-1z" fill="#474A4F"/>
<path transform="translate(86,23)" d="m0 0 2 4-1 7h-4l2-10z" fill="#515B60"/>
<path transform="translate(694,980)" d="m0 0 3 1-8 5-4 6h-2l1-4 8-7z" fill="#143445"/>
<path transform="translate(810,923)" d="m0 0 3 1-13 8-3 1 1-3z" fill="#153F50"/>
<path transform="translate(473,865)" d="m0 0 5 1 1 6h-2l-2 2z" fill="#16556F"/>
<path transform="translate(860,533)" d="m0 0h7l3 3-12-1v2l-4 2 1-4z" fill="#154A62"/>
<path transform="translate(295,356)" d="m0 0h1v10l-4 7-4 1 4-5 2-6z" fill="#A0B6BC"/>
<path transform="translate(841,351)" d="m0 0h3l-1 5-2 5h-2l1-9z" fill="#CCD7DA"/>
<path transform="translate(846,337)" d="m0 0h6l1 4-1 1h-6z" fill="#4A5459"/>
<path transform="translate(622,329)" d="m0 0 1 2-1 3 4 6-1 2-5-5-1-5z" fill="#143344"/>
<path transform="translate(187,331)" d="m0 0 4 2 7 6-2 2-3-2v-2h-2v-2l-4-2z" fill="#154053"/>
<path transform="translate(785,327)" d="m0 0h2v13l-5-1 3-1z" fill="#23F4CE"/>
<path transform="translate(750,318)" d="m0 0h3l-1 5-3 3-2-1-1 2 1-4z" fill="#2FE9F5"/>
<path transform="translate(463,275)" d="m0 0 3 1-8 3-5 3h-5l4-3z" fill="#153E50"/>
<path transform="translate(220,261)" d="m0 0 1 4-4 6-2-4 2-3h2z" fill="#97ABB1"/>
<path transform="translate(801,236)" d="m0 0h3l-1 5-1 1h-7l-2-3 8 1z" fill="#92D4D4"/>
<path transform="translate(737,949)" d="m0 0 3 1-3 4-5 2-3-1z" fill="#165871"/>
<path transform="translate(434,812)" d="m0 0h1v14h-1l-1-7-4 2z" fill="#264959"/>
<path transform="translate(361,724)" d="m0 0 1 2-6 14h-1l1-8z" fill="#818C92"/>
<path transform="translate(580,578)" d="m0 0m-3 0 3 1-1 3-7 1 1-4z" fill="#44F8EA"/>
<path transform="translate(454,554)" d="m0 0 2 1-8 8-2-1 2-4 4-3z" fill="#A3BBC2"/>
<path transform="translate(793,450)" d="m0 0h5l2 4-2 1-8-2v-2z" fill="#E8F0F2"/>
<path transform="translate(774,396)" d="m0 0h7v3h-3l-1 3-2-2-2 2z" fill="#5D6167"/>
<path transform="translate(810,325)" d="m0 0h5v2h2v3l-8-1z" fill="#24EDEC"/>
<path transform="translate(157,309)" d="m0 0h2v2l3 2-4 2-4 4v-5l1-3h2z" fill="#3C454A"/>
<path transform="translate(313,296)" d="m0 0 2 2-1 4-1 2h-2l-1 4h-2l2-6z" fill="#165B77"/>
<path transform="translate(814,257)" d="m0 0h2l-1 9-1 6 3 1h-4v-11z" fill="#16698D"/>
<path transform="translate(807,195)" d="m0 0h3l1 7-4 2z" fill="#8D979C"/>
<path transform="translate(670,178)" d="m0 0h2l1 4h2v-2h3l-2 4h-6z" fill="#23F5CB"/>
<path transform="translate(227,148)" d="m0 0 1 3-1 3-1 11-2-3-1-7h2z" fill="#4E5156"/>
<path transform="translate(884,146)" d="m0 0h1l1 8-4 4-7 1 1-2 5-2 2-2z" fill="#154D65"/>
<path transform="translate(288,144)" d="m0 0 3 1-10 11-1-3 3-4h2l1-3z" fill="#1B4C60"/>
<path transform="translate(647,129)" d="m0 0 1 3-4 6-6 3 2-4z" fill="#CFDADD"/>
<path transform="translate(154,72)" d="m0 0 2 1-1 1 2 1v2h-2l-2 4-2-3v-4z" fill="#494C51"/>
<path transform="translate(772,945)" d="m0 0 4 1-15 8-2-1z" fill="#154051"/>
<path transform="translate(766,930)" d="m0 0 2 1-1 5-5 1v-4z" fill="#3C454A"/>
<path transform="translate(316,599)" d="m0 0 1 2-5 8-4 3-2-1 7-7z" fill="#97E0E0"/>
<path transform="translate(236,572)" d="m0 0 3 3 1 3v11h-1l-1-7-2-7z" fill="#165974"/>
<path transform="translate(242,516)" d="m0 0h5l-6 7h-3v-3z" fill="#929FA4"/>
<path transform="translate(639,307)" d="m0 0 2 1-1 4-2-1-10 2 2-2z" fill="#1785B4"/>
<path transform="translate(168,245)" d="m0 0 3 1v3h-2l-2 11h-2l1-10z" fill="#505C62"/>
<path transform="translate(295,168)" d="m0 0 3 1-9 10-2-2 6-5v-3z" fill="#154153"/>
<path transform="translate(227,169)" d="m0 0 2 4 4 2 3 4h-3l-4-3-3-4z" fill="#3C4A52"/>
<path transform="translate(254,149)" d="m0 0v3l-4 4-2 4h-3l2-4 5-5z" fill="#17566E"/>
<path transform="translate(325,127)" d="m0 0h9l6 4v2l-5-2-10-3z" fill="#17617D"/>
<path transform="translate(314,125)" d="m0 0 16 1v1l-16 1z" fill="#33515E"/>
<path transform="translate(10,27)" d="m0 0 3 3 1 3 2 2-3 3-3-1 2-2-3-1z" fill="#50585D"/>
<path transform="translate(559,865)" d="m0 0h3l-1 3-1 5-6-1-1-6 5 5z" fill="#188AB5"/>
<path transform="translate(616,633)" d="m0 0 2 1-2 5 5-1-1 2-8 2 2-6z" fill="#22637B"/>
<path transform="translate(713,619)" d="m0 0 2 4 1 4h-4l-1-1v-6z" fill="#1CBEEC"/>
<path transform="translate(271,569)" d="m0 0v3l-1 2h-2l-2 5-4 4 2-6z" fill="#96E4E3"/>
<path transform="translate(644,565)" d="m0 0h2l-1 7-3 1-3-4z" fill="#25ECD4"/>
<path transform="translate(286,522)" d="m0 0 4 5 4 7-2 1-7-11z" fill="#154A61"/>
<path transform="translate(600,495)" d="m0 0v3l-9 8-2-1 3-4h3l2-4z" fill="#1C9AC3"/>
<path transform="translate(618,474)" d="m0 0 1 2-7 11-2-1 2-4z" fill="#167FB1"/>
<path transform="translate(683,448)" d="m0 0 2 4-4 2h-5v-3l3-1 3 2z" fill="#25EFFC"/>
<path transform="translate(778,434)" d="m0 0h7v4l-5 1z" fill="#A2B9BF"/>
<path transform="translate(524,354)" d="m0 0h2l-2 5-4 8-2 1 3-9z" fill="#6BEFF2"/>
<path transform="translate(848,327)" d="m0 0h4l-1 5h-5l2-1h-4l1-3z" fill="#5BA299"/>
<path transform="translate(621,289)" d="m0 0 3 1-9 8-3-1 7-6h2z" fill="#143F53"/>
<path transform="translate(203,279)" d="m0 0 2 2 5-1v2l-6 4h-2z" fill="#8E989D"/>
<path transform="translate(253,240)" d="m0 0h4v4h-14v-1l9-1 2 1z" fill="#9DB1B7"/>
<path transform="translate(808,230)" d="m0 0 2 4 2 7h2v2l-4-1-2-4z" fill="#2FEFF4"/>
<path transform="translate(752,219)" d="m0 0 3 1-4 7h-3l-1-2z" fill="#4EEAEE"/>
<path transform="translate(343,179)" d="m0 0h2l-2 4-5 5h-3z" fill="#153E4F"/>
<path transform="translate(384,175)" d="m0 0m-1 1 3 2-12 6v-2l6-5z" fill="#2F4C58"/>
<path transform="translate(454,165)" d="m0 0h7l5 1v1l-15 1z" fill="#37F4F2"/>
<path transform="translate(896,144)" d="m0 0h1l2 9 4 5-4-1-4-6v-6z" fill="#144257"/>
<path transform="translate(240,119)" d="m0 0h2v2l2 1-3 1-1 5h-3v-4l1-3h2z" fill="#3A4247"/>
<path transform="translate(47,113)" d="m0 0h2l1 5-3 1 1 3h-2l1-5 1-2h-2l-1 2h-3v-2z" fill="#4C4F54"/>
<path transform="translate(93,25)" d="m0 0h5v2l2 2-4-1-2-1v5l-3-2h-2v-2l3-1z" fill="#525C61"/>
<path transform="translate(77,17)" d="m0 0 4 4 1-3h2l-1 3-8 3-1-2 1-3h2z" fill="#4E5156"/>
<path transform="translate(707,635)" d="m0 0 7 2 4-2h3v2l-4 2h-7z" fill="#1CB6DC"/>
<path transform="translate(711,614)" d="m0 0 3 1v2h-3l1 3-1 6h-1l-2-9z" fill="#25EFFC"/>
<path transform="translate(359,562)" d="m0 0 4 2-2 4-5-3v-2z" fill="#129DFA"/>
<path transform="translate(358,531)" d="m0 0 2 4-4 4-2-2v-3z" fill="#143445"/>
<path transform="translate(286,521)" d="m0 0h2l8 12-1 2-4-5z" fill="#24EBF9"/>
<path transform="translate(601,499)" d="m0 0h2l-2 4-4 4h-2l-1 2v-3z" fill="#BCE4E6"/>
<path transform="translate(702,478)" d="m0 0 4 4v2l-2 1-1 5h-1l-1-11z" fill="#344A53"/>
<path transform="translate(822,392)" d="m0 0 4 1-3 1-2 2h-8v-2z" fill="#52545A"/>
<path transform="translate(636,278)" d="m0 0h7l3 2-3 1h-6l-2 1-2-2z" fill="#198CBA"/>
<path transform="translate(203,274)" d="m0 0 2 1-2 7h-3l-1-5 4-1z" fill="#575D62"/>
<path transform="translate(838,258)" d="m0 0 4 1 1 5-2 4-3-7z" fill="#154156"/>
<path transform="translate(781,232)" d="m0 0 4 1-1 6-4-1v-5z" fill="#154154"/>
<path transform="translate(440,223)" d="m0 0 3 1-1 2-10 2-1-2z" fill="#CEDBDE"/>
<path transform="translate(687,161)" d="m0 0 4 1 2 3-1 8-3 1 1-8-1-3z" fill="#1F4453"/>
<path transform="translate(874,139)" d="m0 0 5 1-4 2-6 4h-2l2-4z" fill="#1A4052"/>
<path transform="translate(0,131)" d="m0 0 4 1v2h-2v5l1 3h-3z" fill="#4E5257"/>
<path transform="translate(253,124)" d="m0 0 5 1-2 2-5 1v2h-5l3-4z" fill="#485359"/>
<path transform="translate(165,43)" d="m0 0 3 1-1 5 4-1v5l-3-1v-2l-5-2v-2h3z" fill="#26272C"/>
</svg>
